<svg display="none" xmlns="http://www.w3.org/2000/svg">
    <!-- object -->
    <symbol id="trash" width="16" height="19" viewBox="0 0 20 21">
        <path d="M19.8333 4.84211H15.1667V2.42105C15.1667 1.77895 14.9208 1.16315 14.4832 0.70911C14.0457 0.255074 13.4522 0 12.8333 0H8.16667C7.54783 0 6.95434 0.255074 6.51675 0.70911C6.07917 1.16315 5.83333 1.77895 5.83333 2.42105V4.84211H1.16667C0.857247 4.84211 0.560501 4.96964 0.341709 5.19666C0.122916 5.42368 0 5.73158 0 6.05263C0 6.37368 0.122916 6.68159 0.341709 6.9086C0.560501 7.13562 0.857247 7.26316 1.16667 7.26316H2.33333V20.5789C2.33333 21.2211 2.57917 21.8369 3.01675 22.2909C3.45434 22.7449 4.04783 23 4.66667 23H16.3333C16.9522 23 17.5457 22.7449 17.9832 22.2909C18.4208 21.8369 18.6667 21.2211 18.6667 20.5789V7.26316H19.8333C20.1428 7.26316 20.4395 7.13562 20.6583 6.9086C20.8771 6.68159 21 6.37368 21 6.05263C21 5.73158 20.8771 5.42368 20.6583 5.19666C20.4395 4.96964 20.1428 4.84211 19.8333 4.84211ZM8.16667 2.42105H12.8333V4.84211H8.16667V2.42105ZM16.3333 20.5789H4.66667V7.26316H16.3333V20.5789Z"/>
        <path d="M8.16667 8.47368C7.85725 8.47368 7.5605 8.60122 7.34171 8.82824C7.12292 9.05526 7 9.36316 7 9.68421V18.1579C7 18.4789 7.12292 18.7868 7.34171 19.0139C7.5605 19.2409 7.85725 19.3684 8.16667 19.3684C8.47609 19.3684 8.77283 19.2409 8.99162 19.0139C9.21042 18.7868 9.33333 18.4789 9.33333 18.1579V9.68421C9.33333 9.36316 9.21042 9.05526 8.99162 8.82824C8.77283 8.60122 8.47609 8.47368 8.16667 8.47368Z" />
        <path d="M12.8333 8.47368C12.5239 8.47368 12.2272 8.60122 12.0084 8.82824C11.7896 9.05526 11.6667 9.36316 11.6667 9.68421V18.1579C11.6667 18.4789 11.7896 18.7868 12.0084 19.0139C12.2272 19.2409 12.5239 19.3684 12.8333 19.3684C13.1428 19.3684 13.4395 19.2409 13.6583 19.0139C13.8771 18.7868 14 18.4789 14 18.1579V9.68421C14 9.36316 13.8771 9.05526 13.6583 8.82824C13.4395 8.60122 13.1428 8.47368 12.8333 8.47368Z" />
    </symbol>
    <symbol id="file"  width="19" height="22" viewBox="0 0 21 25">
        <path fill-rule="evenodd" clip-rule="evenodd" d="M3.0625 2.5C2.94648 2.5 2.83519 2.5439 2.75313 2.62203C2.6711 2.70018 2.625 2.80617 2.625 2.91667V22.0833C2.625 22.3133 2.821 22.5 3.0625 22.5H17.9375C18.0535 22.5 18.1648 22.4562 18.2469 22.378C18.329 22.2998 18.375 22.1938 18.375 22.0833V10H13.5625C12.7503 10 11.9713 9.69272 11.397 9.14573C10.8226 8.59875 10.5 7.85688 10.5 7.08333V2.5H3.0625ZM13.125 3.43333V7.08333C13.125 7.31333 13.321 7.5 13.5625 7.5H17.395L13.125 3.43333ZM0 2.91667C0 1.30667 1.372 0 3.0625 0H11.963C12.775 0 13.5538 0.306667 14.1278 0.855L20.1023 6.545C20.678 7.09167 21 7.83333 21 8.60667V22.0833C21 22.8568 20.6773 23.5987 20.103 24.1457C19.5286 24.6927 18.7497 25 17.9375 25H3.0625C2.25027 25 1.47131 24.6927 0.89698 24.1457C0.322647 23.5987 0 22.8568 0 22.0833V2.91667Z"/>
    </symbol>
     <symbol id="file-lg" viewBox="0 0 29 36">
        <path d="M9.06266 9V0.234C8.17825 0.476962 7.37138 0.941153 6.71916 1.5822L1.59356 6.6726C0.949371 7.32131 0.482176 8.12229 0.236042 9H9.06266Z"/>
        <path d="M25.4943 0H12.6876V9C12.6876 9.95478 12.3056 10.8705 11.6258 11.5456C10.946 12.2207 10.024 12.6 9.06266 12.6H0.000423588V32.4C-0.0141269 33.3386 0.346698 34.2447 1.00379 34.9196C1.66087 35.5944 2.5606 35.983 3.5057 36H25.4943C26.4394 35.983 27.3391 35.5944 27.9962 34.9196C28.6533 34.2447 29.0141 33.3386 28.9996 32.4V3.6C29.0141 2.66135 28.6533 1.75527 27.9962 1.08043C27.3391 0.405583 26.4394 0.0170438 25.4943 0ZM20.057 27H8.75092C8.27023 27 7.80922 26.8104 7.46932 26.4728C7.12942 26.1352 6.93847 25.6774 6.93847 25.2C6.93847 24.7226 7.12942 24.2648 7.46932 23.9272C7.80922 23.5896 8.27023 23.4 8.75092 23.4H20.057C20.5377 23.4 20.9987 23.5896 21.3386 23.9272C21.6785 24.2648 21.8694 24.7226 21.8694 25.2C21.8694 25.6774 21.6785 26.1352 21.3386 26.4728C20.9987 26.8104 20.5377 27 20.057 27ZM20.057 19.8H8.75092C8.27023 19.8 7.80922 19.6104 7.46932 19.2728C7.12942 18.9352 6.93847 18.4774 6.93847 18C6.93847 17.5226 7.12942 17.0648 7.46932 16.7272C7.80922 16.3896 8.27023 16.2 8.75092 16.2H20.057C20.5377 16.2 20.9987 16.3896 21.3386 16.7272C21.6785 17.0648 21.8694 17.5226 21.8694 18C21.8694 18.4774 21.6785 18.9352 21.3386 19.2728C20.9987 19.6104 20.5377 19.8 20.057 19.8Z" />
    </symbol>
    <symbol id="trash-small" width="15" height="18" viewBox="0 0 25 14">
        <path d="M19.8333 4.84211H15.1667V2.42105C15.1667 1.77895 14.9208 1.16315 14.4832 0.70911C14.0457 0.255074 13.4522 0 12.8333 0H8.16667C7.54783 0 6.95434 0.255074 6.51675 0.70911C6.07917 1.16315 5.83333 1.77895 5.83333 2.42105V4.84211H1.16667C0.857247 4.84211 0.560501 4.96964 0.341709 5.19666C0.122916 5.42368 0 5.73158 0 6.05263C0 6.37368 0.122916 6.68159 0.341709 6.9086C0.560501 7.13562 0.857247 7.26316 1.16667 7.26316H2.33333V20.5789C2.33333 21.2211 2.57917 21.8369 3.01675 22.2909C3.45434 22.7449 4.04783 23 4.66667 23H16.3333C16.9522 23 17.5457 22.7449 17.9832 22.2909C18.4208 21.8369 18.6667 21.2211 18.6667 20.5789V7.26316H19.8333C20.1428 7.26316 20.4395 7.13562 20.6583 6.9086C20.8771 6.68159 21 6.37368 21 6.05263C21 5.73158 20.8771 5.42368 20.6583 5.19666C20.4395 4.96964 20.1428 4.84211 19.8333 4.84211ZM8.16667 2.42105H12.8333V4.84211H8.16667V2.42105ZM16.3333 20.5789H4.66667V7.26316H16.3333V20.5789Z"/>
        <path d="M8.16667 8.47368C7.85725 8.47368 7.5605 8.60122 7.34171 8.82824C7.12292 9.05526 7 9.36316 7 9.68421V18.1579C7 18.4789 7.12292 18.7868 7.34171 19.0139C7.5605 19.2409 7.85725 19.3684 8.16667 19.3684C8.47609 19.3684 8.77283 19.2409 8.99162 19.0139C9.21042 18.7868 9.33333 18.4789 9.33333 18.1579V9.68421C9.33333 9.36316 9.21042 9.05526 8.99162 8.82824C8.77283 8.60122 8.47609 8.47368 8.16667 8.47368Z" />
        <path d="M12.8333 8.47368C12.5239 8.47368 12.2272 8.60122 12.0084 8.82824C11.7896 9.05526 11.6667 9.36316 11.6667 9.68421V18.1579C11.6667 18.4789 11.7896 18.7868 12.0084 19.0139C12.2272 19.2409 12.5239 19.3684 12.8333 19.3684C13.1428 19.3684 13.4395 19.2409 13.6583 19.0139C13.8771 18.7868 14 18.4789 14 18.1579V9.68421C14 9.36316 13.8771 9.05526 13.6583 8.82824C13.4395 8.60122 13.1428 8.47368 12.8333 8.47368Z" />
    </symbol>
    <symbol id="pen-outline" width="18" height="20" viewBox="0 0 21 23" >
        <path d="M19.7636 1.3526C18.116 -0.450868 15.4342 -0.450868 13.7866 1.3526L2.55415 13.6548C2.44179 13.7779 2.36724 13.9228 2.31578 14.0758C2.31263 14.0862 2.30318 14.0931 2.30003 14.1034L0.0539578 21.4852C-0.0720492 21.8981 0.0266561 22.3548 0.308072 22.6618C0.507583 22.8815 0.776398 23 1.05046 23C1.16177 23 1.27413 22.9804 1.38228 22.9402L8.12051 20.4788C8.12996 20.4754 8.13626 20.4662 8.14466 20.4627C8.28537 20.4075 8.41767 20.3247 8.53003 20.2016L19.7636 7.90054C21.4121 6.09591 21.4121 3.15722 19.7636 1.3526ZM12.2819 6.25234L13.0453 7.08851C13.0432 7.09081 13.04 7.09196 13.0379 7.09426L5.54366 15.3019L4.78237 14.468L12.2819 6.25234ZM2.71061 20.0314L3.75541 16.597L5.84503 18.8858L2.71061 20.0314ZM7.78869 17.7621L7.0274 16.9282L14.5217 8.72061C14.5238 8.71831 14.5248 8.71486 14.5269 8.71256L15.2893 9.54758L7.78869 17.7621ZM18.2788 6.27419L16.7751 7.92124L13.7667 4.62599L15.2704 2.97895C16.0999 2.07031 17.4492 2.07146 18.2777 2.97895C19.1083 3.88758 19.1083 5.36556 18.2788 6.27419Z"/>
    </symbol>
    <symbol id="plus-outline" width="24" height="24" viewBox="4 4 24 25">
        <path d="M12 5V12M12 12V19M12 12H19M12 12H5" stroke-width="2" stroke-linecap="round" stroke-linejoin="round"/>
    </symbol>
    <symbol id="tree-chevron-up" width="17" height="17" viewBox="0 0 17 17">
        <circle cx="8.5" cy="8.5" r="8" fill="#E5EAFD" stroke="#819AFA"/>
        <path d="M11.301 9.99182C11.1156 9.99179 10.9378 9.92166 10.8067 9.79688L8.50437 7.60596L6.20205 9.79688C6.13756 9.86043 6.06041 9.91112 5.97511 9.94598C5.88981 9.98085 5.79806 9.99921 5.70523 9.99998C5.6124 10.0007 5.52033 9.98391 5.43441 9.95046C5.34849 9.917 5.27042 9.8676 5.20478 9.80513C5.13913 9.74266 5.08722 9.66838 5.05206 9.58661C5.01691 9.50484 4.99922 9.41723 5.00003 9.32889C5.00083 9.24055 5.02012 9.15324 5.05676 9.07207C5.0934 8.9909 5.14667 8.91748 5.21344 8.85611L8.01007 6.1948C8.14118 6.07007 8.31898 6 8.50437 6C8.68976 6 8.86756 6.07007 8.99867 6.1948L11.7953 8.85611C11.893 8.94916 11.9596 9.06769 11.9866 9.19674C12.0135 9.32578 11.9997 9.45953 11.9468 9.58109C11.8939 9.70264 11.8043 9.80654 11.6893 9.87965C11.5744 9.95276 11.4393 9.9918 11.301 9.99182Z" fill="#819AFA"/>
    </symbol>
    <symbol id="tree-chevron-down" width="17" height="17" viewBox="0 0 17 17">
        <circle cx="8.5" cy="8.5" r="8" fill="#F7F9FA" stroke="#B0B9C5"/>
        <path d="M5.69901 7.00818C5.88442 7.00821 6.06222 7.07834 6.19331 7.20312L8.49563 9.39404L10.7979 7.20312C10.8624 7.13957 10.9396 7.08888 11.0249 7.05402C11.1102 7.01915 11.2019 7.00079 11.2948 7.00002C11.3876 6.99926 11.4797 7.01609 11.5656 7.04954C11.6515 7.083 11.7296 7.1324 11.7952 7.19487C11.8609 7.25734 11.9128 7.33162 11.9479 7.41339C11.9831 7.49516 12.0008 7.58277 12 7.67111C11.9992 7.75945 11.9799 7.84676 11.9432 7.92793C11.9066 8.0091 11.8533 8.08252 11.7866 8.14389L8.98993 10.8052C8.85882 10.9299 8.68102 11 8.49563 11C8.31024 11 8.13244 10.9299 8.00133 10.8052L5.2047 8.14389C5.10695 8.05084 5.04039 7.93231 5.01343 7.80326C4.98646 7.67422 5.00031 7.54047 5.05321 7.41891C5.10612 7.29736 5.19571 7.19346 5.31065 7.12035C5.4256 7.04724 5.56075 7.0082 5.69901 7.00818Z" fill="#B0B9C5"/>
    </symbol>
    <symbol id="chevron-right-outline-lg" width="7" height="13" viewBox="0 0 5 8" >
        <path d="M0.842124 8C0.677663 7.99997 0.516905 7.95309 0.380172 7.86529C0.243439 7.77749 0.136869 7.65271 0.0739377 7.50673C0.011006 7.36075 -0.00546278 7.20012 0.0266123 7.04515C0.0586874 6.89018 0.137867 6.74782 0.254141 6.63608L2.9928 4.00491L0.254141 1.37374C0.174709 1.30004 0.11135 1.21187 0.067764 1.11438C0.0241775 1.0169 0.00123512 0.912054 0.000275541 0.805961C-0.000684042 0.699868 0.020359 0.594654 0.0621756 0.496457C0.103992 0.398261 0.165745 0.309049 0.243832 0.234027C0.321919 0.159005 0.414775 0.0996753 0.516983 0.0594999C0.619191 0.0193246 0.728703 -0.000891752 0.83913 3.01686e-05C0.949558 0.000952089 1.05869 0.022994 1.16015 0.0648698C1.26162 0.106746 1.35339 0.167617 1.43011 0.243931L4.75675 3.44C4.91266 3.58984 5.00024 3.79304 5.00024 4.00491C5.00024 4.21678 4.91266 4.41998 4.75675 4.56981L1.43011 7.76589C1.27418 7.91574 1.06268 7.99995 0.842124 8Z"/>
    </symbol>
    <symbol id="check-outline" width="13" height="8" viewBox="0 0 13 8">
        <path d="M4.65101 7.99999C4.43885 8.00074 4.23477 7.92715 4.08243 7.79495L0.245336 4.46198C0.168856 4.39514 0.107831 4.31547 0.0657463 4.22752C0.0236616 4.13957 0.00134087 4.04506 5.86456e-05 3.94939C-0.00253092 3.75618 0.0807309 3.56995 0.231528 3.43169C0.382324 3.29343 0.588303 3.21445 0.804151 3.21213C1.02 3.20981 1.22804 3.28434 1.38249 3.41933L4.65426 6.26007L11.6169 0.207045C11.7716 0.0720596 11.9798 -0.00239559 12.1958 5.8812e-05C12.4118 0.00251322 12.6179 0.0816762 12.7687 0.220133C12.9195 0.358589 13.0027 0.544997 12.9999 0.73835C12.9972 0.931702 12.9088 1.11616 12.7541 1.25115L5.21959 7.79495C5.06726 7.92715 4.86318 8.00074 4.65101 7.99999Z"/>
    </symbol>
    <symbol id="upload" width="20" height="16" viewBox="0 0 20 16">
        <path fill-rule="evenodd" clip-rule="evenodd" d="M16.989 6.124C16.794 2.714 13.958 0 10.5 0C7.855 0 5.485 1.622 4.494 4.025C1.974 4.28 0 6.414 0 9C0 11.757 2.243 14 5 14H7.167C7.719 14 8.167 13.553 8.167 13C8.167 12.447 7.719 12 7.167 12H5C3.346 12 2 10.654 2 9C2 7.346 3.345 6.001 4.976 6.001H4.977C5.005 6.005 5.123 6.018 5.151 6.02C5.615 6.041 6.044 5.742 6.17 5.29C6.71 3.353 8.491 2 10.5 2C12.981 2 15 4.019 15 6.5C15 6.639 14.991 6.776 14.979 6.912C14.953 7.192 15.046 7.47 15.236 7.677C15.439 7.899 15.695 8.015 16.037 8.001C17.123 8.02 18 8.91 18 10C18 11.103 17.103 12 16 12H13C12.448 12 12 12.447 12 13C12 13.553 12.448 14 13 14H16C18.206 14 20 12.206 20 10C20 8.136 18.718 6.565 16.989 6.124Z"/>
        <path fill-rule="evenodd" clip-rule="evenodd" d="M12.707 8.707C13.098 8.316 13.098 7.684 12.707 7.293L10.707 5.293C10.615 5.201 10.504 5.128 10.382 5.077C10.137 4.976 9.862 4.976 9.618 5.077C9.496 5.128 9.385 5.201 9.293 5.293L7.293 7.293C6.902 7.684 6.902 8.316 7.293 8.707C7.684 9.098 8.316 9.098 8.707 8.707L9 8.414V15C9 15.553 9.448 16 10 16C10.552 16 11 15.553 11 15V8.414L11.293 8.707C11.488 8.902 11.744 9 12 9C12.256 9 12.512 8.902 12.707 8.707Z"/>
    </symbol>
    <!-- navbar -->
     <symbol id='build' width="23" height="23" viewBox="0 0 32 32">
        <path fill-rule="evenodd" clip-rule="evenodd" d="M24.4271 31.3542H25.8855C29.4146 31.3542 31.3542 29.4146 31.3542 25.8854V5.46876C31.3542 1.93959 29.4146 1.01328e-05 25.8855 1.01328e-05H17.1355C14.5806 1.01328e-05 12.8588 1.01649 12.1028 2.91668H8.38546C6.16879 2.91668 4.37504 4.71043 4.37504 6.92709V8.81827C1.54099 9.19032 4.06504e-05 11.0731 4.06504e-05 14.2188V25.8854C4.06504e-05 29.4146 1.93962 31.3542 5.46879 31.3542H17.1355H18.5938H24.4271ZM11.6682 26.0513C11.6901 27.301 11.9616 28.3449 12.4665 29.1667H5.46879C3.16462 29.1667 2.18754 28.1896 2.18754 25.8854V14.2188C2.18754 11.9146 3.16462 10.9375 5.46879 10.9375L11.6667 10.9375V25.8854C11.6667 25.9411 11.6672 25.9964 11.6682 26.0513ZM11.6667 8.75001V5.46876V5.10418H8.38546C7.37921 5.10418 6.56254 5.92084 6.56254 6.92709V8.75001H11.6667ZM14.0003 4.13514C14.3492 2.78143 15.339 2.18751 17.1355 2.18751H25.8855C28.1896 2.18751 29.1667 3.16459 29.1667 5.46876V25.8854C29.1667 28.1896 28.1896 29.1667 25.8855 29.1667H25.5209V24.4271C25.5209 23.0271 24.3688 21.875 22.9688 21.875H20.0521C18.6521 21.875 17.5 23.0271 17.5 24.4271V29.1667H17.1355C16.9914 29.1667 16.8526 29.1629 16.7189 29.1551C14.713 29.0394 13.8542 28.0456 13.8542 25.8854L13.8542 9.8452L13.8542 9.84376V5.46876C13.8542 5.08592 13.8812 4.73971 13.9367 4.42854C13.947 4.38046 13.9583 4.33353 13.9709 4.28751C13.9846 4.23731 13.9943 4.18639 14.0003 4.13514ZM19.6875 29.1667H23.3334V24.4271C23.3334 24.2229 23.173 24.0625 22.9688 24.0625H20.0521C19.848 24.0625 19.6875 24.2229 19.6875 24.4271V29.1667ZM17.5 17.1354C17.5 17.7333 17.9959 18.2292 18.5938 18.2292C19.1917 18.2292 19.6875 17.7333 19.6875 17.1354V9.84376C19.6875 9.24584 19.1917 8.75001 18.5938 8.75001C17.9959 8.75001 17.5 9.24584 17.5 9.84376V17.1354ZM24.4271 18.2292C23.8292 18.2292 23.3334 17.7333 23.3334 17.1354V9.84376C23.3334 9.24584 23.8292 8.75001 24.4271 8.75001C25.025 8.75001 25.5209 9.24584 25.5209 9.84376V17.1354C25.5209 17.7333 25.025 18.2292 24.4271 18.2292ZM6.92712 24.0625C6.32921 24.0625 5.83337 23.5667 5.83337 22.9688V17.1354C5.83337 16.5375 6.32921 16.0417 6.92712 16.0417C7.52504 16.0417 8.02087 16.5375 8.02087 17.1354V22.9688C8.02087 23.5667 7.52504 24.0625 6.92712 24.0625Z" />
    </symbol>
    <symbol id='directory' width="28" height="32" viewBox="15 0 3 5">
        <path fill-rule="evenodd" clip-rule="evenodd" d="M6.1875 2.98437C6.1875 1.8798 7.08293 0.984375 8.1875 0.984375H30.0625C30.4767 0.984375 30.8125 1.32016 30.8125 1.73438V26.0156C30.8125 26.4298 30.4767 26.7656 30.0625 26.7656H16.3594V32.2031H30.0625C30.4767 32.2031 30.8125 32.5389 30.8125 32.9531C30.8125 33.3673 30.4767 33.7031 30.0625 33.7031H16.3594V37H14.8594V33.7031H8.9375C7.41872 33.7031 6.1875 32.4719 6.1875 30.9531V29.4844V28.0156V2.98437ZM14.8594 32.2031V26.7656H8.9375C8.24714 26.7656 7.6875 27.3253 7.6875 28.0156V29.4844V30.9531C7.6875 31.6435 8.24714 32.2031 8.9375 32.2031H14.8594ZM29.3125 2.48438V25.2656H8.9375C8.48739 25.2656 8.06253 25.3738 7.6875 25.5655V2.98437C7.6875 2.70823 7.91136 2.48438 8.1875 2.48438H29.3125Z"/>
    </symbol>
    <symbol id='documentation' width="28" height="32" viewBox="0 2 32 30">
        <path fill-rule="evenodd" clip-rule="evenodd" d="M25.125 12.1098V33.5H1.875V1.5H14.8404C14.5756 1.61578 14.3906 1.88003 14.3906 2.1875V10.4844C14.3906 11.4509 15.1741 12.2344 16.1406 12.2344H24.7109C24.864 12.2344 25.0063 12.1885 25.125 12.1098ZM25.125 10.8589V9.37132L17.2537 1.5H15.4408C15.7056 1.61578 15.8906 1.88003 15.8906 2.1875V10.4844C15.8906 10.6224 16.0026 10.7344 16.1406 10.7344H24.7109C24.864 10.7344 25.0063 10.7802 25.125 10.8589ZM0.375 1C0.375 0.447715 0.822715 0 1.375 0H17.4608C17.726 0 17.9804 0.105357 18.1679 0.292893L26.3321 8.45711C26.5196 8.64464 26.625 8.899 26.625 9.16421V34C26.625 34.5523 26.1773 35 25.625 35H1.375C0.822715 35 0.375 34.5523 0.375 34V1ZM8.57812 18.3906C8.16391 18.3906 7.82812 18.7264 7.82812 19.1406C7.82812 19.5548 8.16391 19.8906 8.57812 19.8906H18.4219C18.8361 19.8906 19.1719 19.5548 19.1719 19.1406C19.1719 18.7264 18.8361 18.3906 18.4219 18.3906H8.57812ZM7.82812 24.6094C7.82812 24.1952 8.16391 23.8594 8.57812 23.8594H14.0469C14.4611 23.8594 14.7969 24.1952 14.7969 24.6094C14.7969 25.0236 14.4611 25.3594 14.0469 25.3594H8.57812C8.16391 25.3594 7.82812 25.0236 7.82812 24.6094Z"/>
    </symbol>
    <symbol id='gear' width="28" height="32" viewBox="0 0 34 32">
        <path fill-rule="evenodd" clip-rule="evenodd" d="M13.4475 4.03249L13.8957 1.5H19.5146L19.9628 4.03265C20.0294 4.4091 20.3028 4.70865 20.6595 4.8169C22.4717 5.36684 24.1103 6.28453 25.4793 7.47647C25.7489 7.71119 26.1278 7.78844 26.4732 7.66579L29.0532 6.74942L31.8322 11.3428L29.7703 12.9698C29.4624 13.2128 29.3298 13.608 29.4143 13.9799C29.6068 14.8267 29.7084 15.7064 29.7084 16.6094C29.7084 17.5125 29.6068 18.3922 29.4143 19.2391C29.3297 19.611 29.4623 20.0062 29.7702 20.2492L31.8318 21.8759L29.0528 26.4693L26.4731 25.5531C26.1277 25.4304 25.7488 25.5077 25.4792 25.7424C24.1102 26.9343 22.4716 27.8519 20.6595 28.4018C20.3028 28.5101 20.0294 28.8097 19.9628 29.1861L19.5146 31.7188H13.8957L13.4475 29.1863C13.3809 28.8098 13.1075 28.5102 12.7508 28.402C10.9385 27.8521 9.2998 26.9344 7.93072 25.7424C7.66114 25.5077 7.28216 25.4305 6.93684 25.5531L4.35725 26.4693L1.57826 21.8759L3.63965 20.2493C3.94757 20.0063 4.08015 19.6112 3.99559 19.2392C3.80302 18.3923 3.70148 17.5125 3.70148 16.6094C3.70148 15.7062 3.80303 14.8264 3.99561 13.9794C4.08018 13.6075 3.9476 13.2123 3.63968 12.9693L1.57843 11.3429L4.35741 6.74946L6.93688 7.6656C7.28221 7.78825 7.66118 7.711 7.93076 7.47629C9.29984 6.28435 10.9385 5.36667 12.7508 4.81677C13.1075 4.70853 13.3809 4.40896 13.4475 4.03249ZM13.686 0C13.0797 0 12.5608 0.435132 12.4552 1.03218L12.0232 3.4733C10.219 4.06159 8.57398 4.9806 7.16765 6.15576L4.66737 5.26775C4.10828 5.06918 3.48663 5.29098 3.17952 5.79862L0.180738 10.7553C-0.14568 11.2949 -0.0191083 11.993 0.475934 12.3837L2.4668 13.9546C2.29262 14.8144 2.20148 15.702 2.20148 16.6094C2.20148 17.5167 2.29262 18.4043 2.46678 19.2641L0.475772 20.8351C-0.0192721 21.2257 -0.145841 21.9239 0.180576 22.4634L3.17935 27.4201C3.48647 27.9278 4.10812 28.1496 4.66721 27.951L7.1676 27.063C8.57395 28.2381 10.219 29.1572 12.0232 29.7455L12.4552 32.1866C12.5608 32.7836 13.0797 33.2188 13.686 33.2188H19.7242C20.3305 33.2188 20.8494 32.7836 20.9551 32.1866L21.3871 29.7453C23.1911 29.157 24.8361 28.238 26.2423 27.0629L28.7428 27.951C29.3019 28.1496 29.9236 27.9278 30.2307 27.4202L33.2295 22.4635C33.5559 21.9239 33.4293 21.2258 32.9343 20.8351L30.9431 19.2639C31.1172 18.4042 31.2084 17.5166 31.2084 16.6094C31.2084 15.7022 31.1172 14.8147 30.9431 13.9551L32.9347 12.3836C33.4297 11.993 33.5563 11.2948 33.2299 10.7553L30.2311 5.79858C29.924 5.29094 29.3023 5.06913 28.7432 5.26771L26.2424 6.15595C24.8361 4.9808 23.1912 4.06179 21.3871 3.47345L20.9551 1.03217C20.8494 0.435124 20.3305 0 19.7242 0H13.686ZM10.5782 16.6094C10.5782 13.4319 13.2878 10.7969 16.7049 10.7969C20.1221 10.7969 22.8316 13.4319 22.8316 16.6094C22.8316 19.7869 20.1221 22.4219 16.7049 22.4219C13.2878 22.4219 10.5782 19.7869 10.5782 16.6094ZM16.7049 9.29688C12.5262 9.29688 9.0782 12.5381 9.0782 16.6094C9.0782 20.6806 12.5262 23.9219 16.7049 23.9219C20.8836 23.9219 24.3316 20.6806 24.3316 16.6094C24.3316 12.5381 20.8836 9.29688 16.7049 9.29688Z"/>
    </symbol>
    <symbol id="bars" width="48" height="30" viewBox="0 0 24 24">    
        <path d="M19.0588 7H4.94118C4.69156 7 4.45217 6.89464 4.27566 6.70711C4.09916 6.51957 4 6.26522 4 6C4 5.73478 4.09916 5.48043 4.27566 5.29289C4.45217 5.10536 4.69156 5 4.94118 5H19.0588C19.3084 5 19.5478 5.10536 19.7243 5.29289C19.9008 5.48043 20 5.73478 20 6C20 6.26522 19.9008 6.51957 19.7243 6.70711C19.5478 6.89464 19.3084 7 19.0588 7Z"/>
        <path d="M19.0588 13H4.94118C4.69156 13 4.45217 12.8946 4.27566 12.7071C4.09916 12.5196 4 12.2652 4 12C4 11.7348 4.09916 11.4804 4.27566 11.2929C4.45217 11.1054 4.69156 11 4.94118 11H19.0588C19.3084 11 19.5478 11.1054 19.7243 11.2929C19.9008 11.4804 20 11.7348 20 12C20 12.2652 19.9008 12.5196 19.7243 12.7071C19.5478 12.8946 19.3084 13 19.0588 13Z"/>
        <path d="M19.0588 19H4.94118C4.69156 19 4.45217 18.8946 4.27566 18.7071C4.09916 18.5196 4 18.2652 4 18C4 17.7348 4.09916 17.4804 4.27566 17.2929C4.45217 17.1054 4.69156 17 4.94118 17H19.0588C19.3084 17 19.5478 17.1054 19.7243 17.2929C19.9008 17.4804 20 17.7348 20 18C20 18.2652 19.9008 18.5196 19.7243 18.7071C19.5478 18.8946 19.3084 19 19.0588 19Z"/>
    </symbol>
    <symbol id="exclamation-outline" width="58" height="58" viewBox="0 0 58 58" xmlns="http://www.w3.org/2000/svg">
        <path d="M29 58C23.2644 58 17.6575 56.2992 12.8885 53.1126C8.11945 49.9261 4.40245 45.3969 2.20751 40.0978C0.0125652 34.7988 -0.561731 28.9678 0.55724 23.3424C1.67621 17.7169 4.43819 12.5496 8.49391 8.49391C12.5496 4.43819 17.7169 1.67621 23.3424 0.55724C28.9678 -0.561731 34.7988 0.0125652 40.0978 2.20751C45.3969 4.40245 49.9261 8.11945 53.1126 12.8885C56.2992 17.6575 58 23.2644 58 29C57.9916 36.6887 54.9335 44.06 49.4968 49.4968C44.06 54.9335 36.6887 57.9916 29 58ZM29 5.80001C24.4115 5.80001 19.926 7.16067 16.1108 9.70992C12.2956 12.2592 9.32196 15.8825 7.56601 20.1218C5.81005 24.361 5.35062 29.0257 6.24579 33.5261C7.14097 38.0265 9.35055 42.1603 12.5951 45.4049C15.8397 48.6495 19.9736 50.859 24.4739 51.7542C28.9743 52.6494 33.639 52.19 37.8783 50.434C42.1175 48.6781 45.7408 45.7044 48.2901 41.8892C50.8393 38.074 52.2 33.5885 52.2 29C52.1931 22.8491 49.7466 16.9521 45.3972 12.6028C41.0479 8.25342 35.1509 5.80692 29 5.80001Z" />
        <path d="M29 34.8C28.2309 34.8 27.4933 34.4945 26.9494 33.9506C26.4055 33.4068 26.1 32.6691 26.1 31.9V17.4C26.1 16.6309 26.4055 15.8933 26.9494 15.3494C27.4933 14.8055 28.2309 14.5 29 14.5C29.7691 14.5 30.5068 14.8055 31.0506 15.3494C31.5945 15.8933 31.9 16.6309 31.9 17.4V31.9C31.9 32.6691 31.5945 33.4068 31.0506 33.9506C30.5068 34.4945 29.7691 34.8 29 34.8Z" />
        <path d="M29 43.5C30.6016 43.5 31.9 42.2016 31.9 40.6C31.9 38.9984 30.6016 37.7 29 37.7C27.3984 37.7 26.1 38.9984 26.1 40.6C26.1 42.2016 27.3984 43.5 29 43.5Z" >
    </symbol>
    <!-- header -->
    <symbol id="bell" width="18" height="24" viewBox="0 0 18 24">
        <path d="M15.5996 13.3034V11.0297C15.6004 9.49305 15.0737 8.00099 14.1045 6.79485C13.1353 5.5887 11.7803 4.73899 10.2587 4.3831C10.2703 4.33901 10.2793 4.2943 10.2857 4.2492V1.26314C10.2857 0.928135 10.1503 0.60685 9.90914 0.369965C9.66802 0.133081 9.34099 0 9 0C8.65901 0 8.33198 0.133081 8.09086 0.369965C7.84975 0.60685 7.71429 0.928135 7.71429 1.26314V4.2492C7.72068 4.2943 7.7297 4.33901 7.74129 4.3831C6.21966 4.73899 4.8647 5.5887 3.89551 6.79485C2.92632 8.00099 2.39957 9.49305 2.40043 11.0297V13.3034C2.40043 16.3172 0 17.0701 0 18.577C0 19.326 1.19209e-07 20.0839 0.691714 20.0839H17.3083C18 20.0839 18 19.326 18 18.577C18 17.0701 15.5996 16.3172 15.5996 13.3034Z"/>
        <path d="M4.91529 21.3471C5.25636 22.134 5.82543 22.8051 6.5517 23.2768C7.27797 23.7485 8.12938 24 9 24C9.87062 24 10.722 23.7485 11.4483 23.2768C12.1746 22.8051 12.7436 22.134 13.0847 21.3471H4.91529Z"/>
    </symbol>
    <symbol id="logout" width="24" height="24" viewBox="0 0 24 24">
        <path d="M19.923 11.618C19.872 11.495 19.799 11.385 19.706 11.292L15.707 7.293C15.316 6.902 14.684 6.902 14.293 7.293C13.902 7.684 13.902 8.316 14.293 8.707L16.586 11H8C7.447 11 7 11.448 7 12C7 12.552 7.447 13 8 13H16.586L14.293 15.293C13.902 15.684 13.902 16.316 14.293 16.707C14.488 16.902 14.744 17 15 17C15.256 17 15.512 16.902 15.707 16.707L19.706 12.708C19.799 12.616 19.872 12.505 19.923 12.382C20.024 12.138 20.024 11.862 19.923 11.618Z"/>
        <path d="M10 18H7C6.448 18 6 17.551 6 17V7C6 6.449 6.448 6 7 6H10C10.553 6 11 5.552 11 5C11 4.448 10.553 4 10 4H7C5.346 4 4 5.346 4 7V17C4 18.654 5.346 20 7 20H10C10.553 20 11 19.552 11 19C11 18.448 10.553 18 10 18Z" />
    </symbol>
    <symbol id="dots-horizontal-outline" width="24" height="24" viewBox="0 0 24 24">
        <path d="M20 14C21.1046 14 22 13.1046 22 12C22 10.8954 21.1046 10 20 10C18.8954 10 18 10.8954 18 12C18 13.1046 18.8954 14 20 14Z"/>
        <path d="M12 14C13.1046 14 14 13.1046 14 12C14 10.8954 13.1046 10 12 10C10.8954 10 10 10.8954 10 12C10 13.1046 10.8954 14 12 14Z"/>
        <path d="M4 14C5.10457 14 6 13.1046 6 12C6 10.8954 5.10457 10 4 10C2.89543 10 2 10.8954 2 12C2 13.1046 2.89543 14 4 14Z"/>
    </symbol>
    <symbol id="cog-fill" width="24" height="24" viewBox="0 0 24 24">
        <path d="M20 10H19.243L18.536 8.293L19.071 7.757C19.2585 7.56947 19.3638 7.31516 19.3638 7.05C19.3638 6.78484 19.2585 6.53053 19.071 6.343L17.657 4.929C17.4695 4.74153 17.2152 4.63621 16.95 4.63621C16.6848 4.63621 16.4305 4.74153 16.243 4.929L15.707 5.464L14 4.757V4C14 3.73478 13.8946 3.48043 13.7071 3.29289C13.5196 3.10536 13.2652 3 13 3H11C10.7348 3 10.4804 3.10536 10.2929 3.29289C10.1054 3.48043 10 3.73478 10 4V4.757L8.293 5.464L7.757 4.929C7.56947 4.74153 7.31516 4.63621 7.05 4.63621C6.78484 4.63621 6.53053 4.74153 6.343 4.929L4.929 6.343C4.74153 6.53053 4.63621 6.78484 4.63621 7.05C4.63621 7.31516 4.74153 7.56947 4.929 7.757L5.465 8.293L4.757 10H4C3.73478 10 3.48043 10.1054 3.29289 10.2929C3.10536 10.4804 3 10.7348 3 11V13C3 13.2652 3.10536 13.5196 3.29289 13.7071C3.48043 13.8946 3.73478 14 4 14H4.757C5.098 14.823 5.124 14.884 5.464 15.707L4.929 16.243C4.74153 16.4305 4.63621 16.6848 4.63621 16.95C4.63621 17.2152 4.74153 17.4695 4.929 17.657L6.343 19.071C6.53053 19.2585 6.78484 19.3638 7.05 19.3638C7.31516 19.3638 7.56947 19.2585 7.757 19.071L8.293 18.536L10 19.243V20C10 20.2652 10.1054 20.5196 10.2929 20.7071C10.4804 20.8946 10.7348 21 11 21H13C13.2652 21 13.5196 20.8946 13.7071 20.7071C13.8946 20.5196 14 20.2652 14 20V19.243L15.707 18.535L16.243 19.071C16.4305 19.2585 16.6848 19.3638 16.95 19.3638C17.2152 19.3638 17.4695 19.2585 17.657 19.071L19.071 17.657C19.2585 17.4695 19.3638 17.2152 19.3638 16.95C19.3638 16.6848 19.2585 16.4305 19.071 16.243L18.536 15.707L19.243 14H20C20.2652 14 20.5196 13.8946 20.7071 13.7071C20.8946 13.5196 21 13.2652 21 13V11C21 10.7348 20.8946 10.4804 20.7071 10.2929C20.5196 10.1054 20.2652 10 20 10ZM12 16C11.2089 16 10.4355 15.7654 9.77772 15.3259C9.11992 14.8864 8.60723 14.2616 8.30448 13.5307C8.00173 12.7998 7.92252 11.9956 8.07686 11.2196C8.2312 10.4437 8.61216 9.73098 9.17157 9.17157C9.73098 8.61216 10.4437 8.2312 11.2196 8.07686C11.9956 7.92252 12.7998 8.00173 13.5307 8.30448C14.2616 8.60723 14.8864 9.11992 15.3259 9.77772C15.7654 10.4355 16 11.2089 16 12C16 13.0609 15.5786 14.0783 14.8284 14.8284C14.0783 15.5786 13.0609 16 12 16Z"/>
    </symbol>
    <symbol id="profile" width="24" height="24" viewBox="0 0 24 24">
        <path d="M12 14C12.7911 14 13.5645 13.7654 14.2223 13.3259C14.8801 12.8863 15.3928 12.2616 15.6955 11.5307C15.9983 10.7998 16.0775 9.99556 15.9231 9.21964C15.7688 8.44371 15.3878 7.73098 14.8284 7.17157C14.269 6.61216 13.5563 6.2312 12.7804 6.07686C12.0044 5.92252 11.2002 6.00173 10.4693 6.30448C9.73836 6.60723 9.11365 7.11992 8.67412 7.77772C8.23459 8.43551 8 9.20887 8 10C8 11.0609 8.42143 12.0783 9.17157 12.8284C9.92172 13.5786 10.9391 14 12 14ZM12 8C12.3956 8 12.7822 8.1173 13.1111 8.33706C13.44 8.55682 13.6964 8.86918 13.8478 9.23463C13.9991 9.60008 14.0387 10.0022 13.9616 10.3902C13.8844 10.7781 13.6939 11.1345 13.4142 11.4142C13.1345 11.6939 12.7781 11.8844 12.3902 11.9616C12.0022 12.0387 11.6001 11.9991 11.2346 11.8478C10.8692 11.6964 10.5568 11.44 10.3371 11.1111C10.1173 10.7822 10 10.3956 10 10C10 9.46956 10.2107 8.96086 10.5858 8.58578C10.9609 8.21071 11.4696 8 12 8Z" />
        <path d="M22 12C22.0014 10.2703 21.5541 8.56983 20.7019 7.06468C19.8496 5.55952 18.6215 4.30116 17.1376 3.41252C15.6536 2.52388 13.9645 2.03535 12.2353 1.99465C10.5061 1.95395 8.7959 2.36247 7.27177 3.18031C5.74764 3.99815 4.46171 5.19733 3.53958 6.66072C2.61746 8.12411 2.09067 9.80166 2.0107 11.5295C1.93072 13.2573 2.30028 14.9764 3.08328 16.5187C3.86628 18.061 5.03594 19.3739 6.478 20.329C6.486 20.335 6.491 20.342 6.499 20.348C6.537 20.373 6.579 20.39 6.618 20.415C6.94053 20.6206 7.27439 20.8079 7.618 20.976C7.709 21.02 7.799 21.066 7.892 21.107C8.28131 21.2866 8.68221 21.4399 9.092 21.566C9.141 21.582 9.192 21.591 9.243 21.605C9.6115 21.7097 9.98581 21.7929 10.364 21.854C10.474 21.873 10.583 21.891 10.693 21.905C11.1261 21.9652 11.5627 21.9969 12 22C12.4349 21.9966 12.8692 21.9649 13.3 21.905C13.41 21.891 13.519 21.873 13.629 21.854C14.0072 21.7929 14.3815 21.7097 14.75 21.605C14.8 21.591 14.85 21.582 14.901 21.566C15.3108 21.4399 15.7117 21.2866 16.101 21.107C16.194 21.066 16.284 21.02 16.375 20.976C16.7186 20.8079 17.0525 20.6206 17.375 20.415C17.414 20.39 17.456 20.373 17.494 20.348C17.502 20.342 17.507 20.335 17.515 20.329C18.8919 19.4187 20.0221 18.1817 20.8046 16.7284C21.5872 15.2751 21.9979 13.6506 22 12ZM4 12C3.99741 10.6726 4.32515 9.36545 4.95369 8.1963C5.58222 7.02716 6.49179 6.03279 7.60043 5.3028C8.70906 4.57281 9.98191 4.13015 11.3043 4.01472C12.6266 3.89928 13.9569 4.1147 15.1753 4.64155C16.3936 5.16841 17.4617 5.99014 18.2833 7.03269C19.1049 8.07524 19.6542 9.30585 19.8817 10.6136C20.1091 11.9214 20.0076 13.2652 19.5862 14.5239C19.1649 15.7826 18.4369 16.9167 17.468 17.824C17.0637 16.9811 16.4302 16.2692 15.64 15.7697C14.8497 15.2702 13.9348 15.0035 13 15H11C10.0652 15.0035 9.15025 15.2702 8.36004 15.7697C7.56982 16.2692 6.93628 16.9811 6.532 17.824C5.73352 17.0784 5.09676 16.1768 4.6612 15.1749C4.22564 14.1731 4.00059 13.0924 4 12ZM14.845 19.468C13.0096 20.15 10.9904 20.15 9.155 19.468C9.12 19.454 9.083 19.443 9.048 19.429C8.75112 19.3135 8.46158 19.1799 8.181 19.029C8.38086 18.4392 8.75999 17.9266 9.26541 17.5628C9.77083 17.1991 10.3773 17.0023 11 17H13C13.6225 17.0021 14.2287 17.1986 14.7341 17.562C15.2395 17.9254 15.6188 18.4376 15.819 19.027C15.5384 19.1779 15.2489 19.3115 14.952 19.427C14.917 19.443 14.88 19.454 14.845 19.468Z"/>
    </symbol>
    <symbol id="accounts" width="24" height="24" viewBox="0 0 24 24">
        <path d="M16 4.10526C15.521 4.10912 15.0467 4.20435 14.6 4.38632C14.8375 5.06748 14.9698 5.78427 14.992 6.50948C15.2964 6.31645 15.6446 6.21319 16 6.21053C16.3412 6.20927 16.677 6.29993 16.9756 6.47387C17.2741 6.64781 17.5254 6.89925 17.7055 7.20428C17.8857 7.50931 17.9887 7.85778 18.0048 8.21655C18.0209 8.57532 17.9495 8.93245 17.7974 9.25398C17.6454 9.57551 17.4177 9.85074 17.136 10.0535C16.8544 10.2563 16.5282 10.3798 16.1884 10.4124C15.8486 10.4449 15.5065 10.3855 15.1947 10.2396C14.8829 10.0937 14.6117 9.86628 14.407 9.57895C14.1196 10.2384 13.7345 10.8457 13.266 11.3779C13.7412 11.85 14.319 12.1923 14.9489 12.375C15.5788 12.5577 16.2417 12.5752 16.8795 12.426C17.5173 12.2767 18.1107 11.9652 18.6078 11.5188C19.1048 11.0724 19.4904 10.5046 19.7309 9.86505C19.9713 9.22552 20.0592 8.53373 19.9869 7.85016C19.9147 7.16659 19.6844 6.51206 19.3164 5.9438C18.9483 5.37553 18.4535 4.91084 17.8754 4.59034C17.2973 4.26984 16.6534 4.10329 16 4.10526Z"/>
        <path d="M17 13.5789H15.736C16.1641 14.2215 16.4913 14.9323 16.705 15.6842H17C17.7956 15.6842 18.5587 16.0169 19.1213 16.6091C19.6839 17.2014 20 18.0046 20 18.8421V19.8947H17V20.9474C16.9968 21.3068 16.9345 21.6629 16.816 22H21C21.2652 22 21.5196 21.8891 21.7071 21.6917C21.8946 21.4943 22 21.2265 22 20.9474V18.8421C21.9984 17.4467 21.4711 16.109 20.5338 15.1223C19.5964 14.1357 18.3256 13.5806 17 13.5789Z"/>
        <path d="M8.5 11.4737C7.60998 11.4737 6.73995 11.1959 5.99993 10.6754C5.25991 10.1549 4.68314 9.4151 4.34254 8.54955C4.00195 7.68401 3.91283 6.73159 4.08647 5.81273C4.2601 4.89387 4.68868 4.04985 5.31802 3.38739C5.94736 2.72493 6.74918 2.27379 7.62209 2.09102C8.49501 1.90825 9.39981 2.00205 10.2221 2.36057C11.0443 2.71909 11.7471 3.32623 12.2416 4.1052C12.7361 4.88416 13 5.79998 13 6.73684C12.9987 7.9927 12.5241 9.19673 11.6805 10.0848C10.8369 10.9728 9.69307 11.4723 8.5 11.4737ZM8.5 4.10526C8.00555 4.10526 7.5222 4.2596 7.11107 4.54877C6.69995 4.83793 6.37952 5.24892 6.1903 5.72978C6.00108 6.21064 5.95157 6.73976 6.04804 7.25024C6.1445 7.76072 6.3826 8.22962 6.73223 8.59765C7.08186 8.96568 7.52732 9.21632 8.01227 9.31786C8.49723 9.4194 8.99989 9.36728 9.45671 9.16811C9.91352 8.96893 10.304 8.63163 10.5787 8.19887C10.8534 7.76611 11 7.25732 11 6.73684C11 6.03891 10.7366 5.36955 10.2678 4.87604C9.79893 4.38252 9.16304 4.10526 8.5 4.10526Z"/>
        <path d="M14 22H3C2.73478 22 2.48043 21.8891 2.29289 21.6917C2.10536 21.4943 2 21.2265 2 20.9474V17.7895C2.00159 16.3941 2.52888 15.0564 3.46622 14.0697C4.40356 13.083 5.67441 12.528 7 12.5263H10C11.3256 12.528 12.5964 13.083 13.5338 14.0697C14.4711 15.0564 14.9984 16.3941 15 17.7895V20.9474C15 21.2265 14.8946 21.4943 14.7071 21.6917C14.5196 21.8891 14.2652 22 14 22ZM4 19.8947H13V17.7895C13 16.9519 12.6839 16.1487 12.1213 15.5565C11.5587 14.9643 10.7956 14.6316 10 14.6316H7C6.20435 14.6316 5.44129 14.9643 4.87868 15.5565C4.31607 16.1487 4 16.9519 4 17.7895V19.8947Z"/>
    </symbol>
    <!-- table -->
    <symbol id="dots-vertical-outline" width="3" height="14" viewBox="0 0 3 14">
        <path d="M1.5 2.8C2.32843 2.8 3 2.1732 3 1.4C3 0.626801 2.32843 0 1.5 0C0.671573 0 0 0.626801 0 1.4C0 2.1732 0.671573 2.8 1.5 2.8Z" fill="#5D5D5D"/>
        <path d="M1.5 8.4C2.32843 8.4 3 7.7732 3 7C3 6.2268 2.32843 5.6 1.5 5.6C0.671573 5.6 0 6.2268 0 7C0 7.7732 0.671573 8.4 1.5 8.4Z" fill="#5D5D5D"/>
        <path d="M1.5 14C2.32843 14 3 13.3732 3 12.6C3 11.8268 2.32843 11.2 1.5 11.2C0.671573 11.2 0 11.8268 0 12.6C0 13.3732 0.671573 14 1.5 14Z" fill="#5D5D5D"/>
    </symbol>
    <symbol id="filter" width="20" height="20" viewBox="0 0 20 20">
        <path d="M12.219 20C11.9803 20 11.748 19.9241 11.557 19.7838L7.11891 16.5405C6.98187 16.4398 6.87064 16.3093 6.79403 16.1591C6.71742 16.009 6.67754 15.8435 6.67754 15.6757V11.7081L0.433156 3.44865C0.190019 3.12687 0.042843 2.74528 0.0080261 2.34639C-0.0267908 1.94749 0.0521188 1.54695 0.235963 1.18941C0.419807 0.83186 0.701365 0.531344 1.04927 0.321339C1.39717 0.111335 1.79775 9.03518e-05 2.20639 0H17.7936C18.2022 9.03518e-05 18.6028 0.111335 18.9507 0.321339C19.2986 0.531344 19.5802 0.83186 19.764 1.18941C19.9479 1.54695 20.0268 1.94749 19.992 2.34639C19.9572 2.74528 19.81 3.12687 19.5668 3.44865L13.3225 11.7081V18.9189C13.3225 19.2056 13.2062 19.4806 12.9993 19.6834C12.7923 19.8861 12.5117 20 12.219 20ZM8.88442 15.1351L11.1156 16.7643V11.3514C11.1156 11.1174 11.193 10.8898 11.3363 10.7027L17.7936 2.16216H2.20639L8.66815 10.7027C8.8114 10.8898 8.88883 11.1174 8.88883 11.3514L8.88442 15.1351Z"/>
    </symbol>
    <symbol id="filter-sm" width="15" height="15" viewBox="0 0 20 20">
        <path d="M12.219 20C11.9803 20 11.748 19.9241 11.557 19.7838L7.11891 16.5405C6.98187 16.4398 6.87064 16.3093 6.79403 16.1591C6.71742 16.009 6.67754 15.8435 6.67754 15.6757V11.7081L0.433156 3.44865C0.190019 3.12687 0.042843 2.74528 0.0080261 2.34639C-0.0267908 1.94749 0.0521188 1.54695 0.235963 1.18941C0.419807 0.83186 0.701365 0.531344 1.04927 0.321339C1.39717 0.111335 1.79775 9.03518e-05 2.20639 0H17.7936C18.2022 9.03518e-05 18.6028 0.111335 18.9507 0.321339C19.2986 0.531344 19.5802 0.83186 19.764 1.18941C19.9479 1.54695 20.0268 1.94749 19.992 2.34639C19.9572 2.74528 19.81 3.12687 19.5668 3.44865L13.3225 11.7081V18.9189C13.3225 19.2056 13.2062 19.4806 12.9993 19.6834C12.7923 19.8861 12.5117 20 12.219 20ZM8.88442 15.1351L11.1156 16.7643V11.3514C11.1156 11.1174 11.193 10.8898 11.3363 10.7027L17.7936 2.16216H2.20639L8.66815 10.7027C8.8114 10.8898 8.88883 11.1174 8.88883 11.3514L8.88442 15.1351Z"/>
    </symbol>
    <symbol id="search" width="17" height="17" viewBox="0 0 15 15">
        <path d="M6.00007 12C4.81337 12 3.65332 11.6481 2.66661 10.9888C1.67991 10.3295 0.910862 9.39246 0.456731 8.2961C0.00259972 7.19974 -0.116222 5.99334 0.115292 4.82946C0.346806 3.66557 0.918258 2.59648 1.75738 1.75736C2.59651 0.918247 3.66562 0.346802 4.82952 0.115291C5.99342 -0.11622 7.19983 0.00259968 8.2962 0.456725C9.39257 0.910851 10.3297 1.67989 10.9889 2.66658C11.6482 3.65327 12.0001 4.81331 12.0001 6C11.9984 7.59075 11.3656 9.11583 10.2408 10.2407C9.11594 11.3655 7.59084 11.9982 6.00007 12ZM6.00007 1.5C5.11005 1.5 4.24001 1.76392 3.49998 2.25839C2.75995 2.75285 2.18316 3.45566 1.84257 4.27793C1.50197 5.10019 1.41285 6.00499 1.58649 6.87791C1.76012 7.75082 2.18871 8.55264 2.81805 9.18198C3.4474 9.81131 4.24923 10.2399 5.12216 10.4135C5.99508 10.5872 6.89989 10.498 7.72217 10.1575C8.54445 9.81686 9.24726 9.24009 9.74173 8.50006C10.2362 7.76004 10.5001 6.89002 10.5001 6C10.4989 4.80689 10.0244 3.66299 9.18077 2.81934C8.33711 1.97568 7.19319 1.50119 6.00007 1.5Z" />
        <path d="M14.2502 15C14.0513 15 13.8605 14.9209 13.7199 14.7803L10.7199 11.7803C10.5832 11.6388 10.5076 11.4493 10.5094 11.2527C10.5111 11.0561 10.5899 10.8679 10.729 10.7289C10.8681 10.5898 11.0562 10.511 11.2528 10.5092C11.4495 10.5075 11.6389 10.5831 11.7804 10.7198L14.7804 13.7198C14.8853 13.8246 14.9567 13.9583 14.9856 14.1037C15.0145 14.2492 14.9997 14.4 14.9429 14.537C14.8862 14.674 14.7901 14.7911 14.6667 14.8736C14.5434 14.956 14.3985 15 14.2502 15Z"/>
    </symbol>
    <symbol id="caret-down" width="8" height="4" viewBox="0 0 8 4">
        <path d="M0.178074 0.900104L3.57083 3.84561C3.68473 3.94447 3.83919 4 4.00024 4C4.1613 4 4.31576 3.94447 4.42965 3.84561L7.82241 0.900104C7.90733 0.82636 7.96516 0.732414 7.98858 0.630142C8.012 0.527871 7.99998 0.421866 7.95402 0.325528C7.90806 0.22919 7.83023 0.146844 7.73037 0.0889021C7.63052 0.0309599 7.51311 2.2265e-05 7.39301 0H0.607483C0.487376 2.2265e-05 0.369973 0.0309599 0.270115 0.0889021C0.170258 0.146844 0.0924301 0.22919 0.0464705 0.325528C0.000510851 0.421866 -0.011517 0.527871 0.0119077 0.630142C0.0353324 0.732414 0.0931578 0.82636 0.178074 0.900104Z"/>
    </symbol>
    <symbol id="chevron-right-outline" width="5" height="8" viewBox="0 0 5 8" >
        <path d="M0.842124 8C0.677663 7.99997 0.516905 7.95309 0.380172 7.86529C0.243439 7.77749 0.136869 7.65271 0.0739377 7.50673C0.011006 7.36075 -0.00546278 7.20012 0.0266123 7.04515C0.0586874 6.89018 0.137867 6.74782 0.254141 6.63608L2.9928 4.00491L0.254141 1.37374C0.174709 1.30004 0.11135 1.21187 0.067764 1.11438C0.0241775 1.0169 0.00123512 0.912054 0.000275541 0.805961C-0.000684042 0.699868 0.020359 0.594654 0.0621756 0.496457C0.103992 0.398261 0.165745 0.309049 0.243832 0.234027C0.321919 0.159005 0.414775 0.0996753 0.516983 0.0594999C0.619191 0.0193246 0.728703 -0.000891752 0.83913 3.01686e-05C0.949558 0.000952089 1.05869 0.022994 1.16015 0.0648698C1.26162 0.106746 1.35339 0.167617 1.43011 0.243931L4.75675 3.44C4.91266 3.58984 5.00024 3.79304 5.00024 4.00491C5.00024 4.21678 4.91266 4.41998 4.75675 4.56981L1.43011 7.76589C1.27418 7.91574 1.06268 7.99995 0.842124 8Z"/>
    </symbol>
    <symbol id="chevron-left-outline" width="5" height="8" viewBox="0 0 5 8" >
        <path d="M4.15836 1.44202e-07C4.32283 3.38822e-05 4.48358 0.0469136 4.62032 0.134713C4.75705 0.222513 4.86362 0.34729 4.92655 0.493271C4.98948 0.639251 5.00595 0.79988 4.97388 0.954852C4.9418 1.10982 4.86262 1.25218 4.74635 1.36392L2.00769 3.99509L4.74635 6.62626C4.82578 6.69996 4.88914 6.78813 4.93272 6.88562C4.97631 6.9831 4.99925 7.08795 5.00021 7.19404C5.00117 7.30013 4.98013 7.40535 4.93831 7.50354C4.8965 7.60174 4.83474 7.69095 4.75666 7.76597C4.67857 7.841 4.58571 7.90032 4.48351 7.9405C4.3813 7.98068 4.27178 8.00089 4.16136 7.99997C4.05093 7.99905 3.9418 7.97701 3.84033 7.93513C3.73887 7.89325 3.6471 7.83238 3.57038 7.75607L0.243743 4.56C0.0878309 4.41016 0.000244204 4.20696 0.000244204 3.99509C0.000244204 3.78322 0.0878309 3.58002 0.243743 3.43019L3.57038 0.234112C3.72631 0.0842565 3.93781 4.53985e-05 4.15836 1.44202e-07Z" />
    </symbol>
    <symbol id="chevron-down-outline" width="14" height="14" viewBox="0 0 24 24" >
       <path d="M12.0172 16C11.6459 15.9999 11.2899 15.8597 11.0274 15.6101L5.4274 10.2877C5.29369 10.165 5.18703 10.0181 5.11366 9.85579C5.04029 9.69345 5.00167 9.51885 5.00005 9.34217C4.99844 9.16549 5.03386 8.99028 5.10425 8.82675C5.17465 8.66323 5.2786 8.51466 5.41005 8.38973C5.5415 8.26479 5.69781 8.16599 5.86987 8.09909C6.04192 8.03218 6.22627 7.99851 6.41217 8.00005C6.59806 8.00159 6.78176 8.03829 6.95257 8.10803C7.12337 8.17776 7.27786 8.27913 7.407 8.40622L12.0172 12.7879L16.6274 8.40622C16.8914 8.16384 17.2451 8.02972 17.6122 8.03275C17.9792 8.03578 18.3304 8.17572 18.5899 8.42243C18.8495 8.66913 18.9968 9.00287 18.9999 9.35175C19.0031 9.70063 18.862 10.0367 18.607 10.2877L13.007 15.6101C12.7445 15.8597 12.3885 15.9999 12.0172 16Z"/>
    </symbol>
    <symbol id="caret-right"  width="17" height="17" viewBox="0 0 24 17" >
        <path d="M9.80021 18.6888L15.6912 12.7515C15.8889 12.5521 16 12.2818 16 12C16 11.7182 15.8889 11.4479 15.6912 11.2485L9.80021 5.3112C9.65272 5.1626 9.46483 5.0614 9.26028 5.02041C9.05574 4.97942 8.84373 5.00047 8.65106 5.0809C8.45838 5.16133 8.29369 5.29752 8.1778 5.47227C8.06192 5.64703 8.00004 5.85248 8 6.06267V17.9373C8.00004 18.1475 8.06192 18.353 8.1778 18.5277C8.29369 18.7025 8.45838 18.8387 8.65106 18.9191C8.84373 18.9995 9.05574 19.0206 9.26028 18.9796C9.46483 18.9386 9.65272 18.8374 9.80021 18.6888Z"/>
    </symbol>
    <symbol id="caret-down" width="19" height="19"  viewBox="0 0 11 11" >
        <path d="M5.3112 9.80021L11.2485 15.6912C11.4479 15.8889 11.7182 16 12 16C12.2818 16 12.5521 15.8889 12.7515 15.6912L18.6888 9.80021C18.8374 9.65272 18.9386 9.46483 18.9796 9.26028C19.0206 9.05574 18.9995 8.84373 18.9191 8.65106C18.8387 8.45838 18.7025 8.29369 18.5277 8.1778C18.353 8.06192 18.1475 8.00004 17.9373 8H6.06267C5.85248 8.00004 5.64703 8.06192 5.47227 8.1778C5.29752 8.29369 5.16133 8.45838 5.0809 8.65106C5.00047 8.84373 4.97942 9.05574 5.02041 9.26028C5.0614 9.46483 5.1626 9.65272 5.3112 9.80021Z"/>
    </symbol>

    <symbol id="caret-outline-down" width="11" height="6" viewBox="0 0 11 6">
        <path d="M5.51352 6C5.2218 5.99994 4.94206 5.89476 4.73582 5.7076L0.335817 1.71577C0.230756 1.62372 0.146955 1.5136 0.0893055 1.39184C0.0316556 1.27009 0.00131073 1.13914 4.15328e-05 1.00663C-0.00122767 0.87412 0.026604 0.74271 0.0819129 0.620065C0.137222 0.49742 0.2189 0.385996 0.322182 0.292295C0.425464 0.198595 0.548282 0.124493 0.683467 0.0743151C0.818653 0.0241369 0.963501 -0.00111378 1.10956 3.76785e-05C1.25562 0.00118914 1.39996 0.028719 1.53416 0.0810209C1.66837 0.133323 1.78975 0.20935 1.89122 0.304665L5.51352 3.59093L9.13582 0.304665C9.34328 0.122879 9.62114 0.0222908 9.90956 0.0245646C10.198 0.0268383 10.4739 0.131792 10.6778 0.316821C10.8818 0.50185 10.9975 0.752151 11 1.01381C11.0025 1.27547 10.8916 1.52756 10.6912 1.71577L6.29122 5.7076C6.08497 5.89476 5.80523 5.99994 5.51352 6V6Z"/>
    </symbol>
    <symbol id="caret-outline-right" width="7" height="12" viewBox="0 0 7 12">
        <path d="M6.5 5.98648C6.49994 6.2782 6.39476 6.55794 6.2076 6.76418L2.21577 11.1642C2.12372 11.2692 2.0136 11.353 1.89184 11.4107C1.77009 11.4683 1.63914 11.4987 1.50663 11.5C1.37412 11.5012 1.24271 11.4734 1.12006 11.4181C0.99742 11.3628 0.885996 11.2811 0.792295 11.1778C0.698595 11.0745 0.624493 10.9517 0.574315 10.8165C0.524137 10.6813 0.498886 10.5365 0.500038 10.3904C0.501189 10.2444 0.528719 10.1 0.581021 9.96584C0.633323 9.83163 0.70935 9.71025 0.804665 9.60878L4.09093 5.98648L0.804665 2.36418C0.622879 2.15672 0.522291 1.87886 0.524565 1.59044C0.526838 1.30203 0.631792 1.02613 0.816821 0.822184C1.00185 0.618235 1.25215 0.502548 1.51381 0.500042C1.77547 0.497536 2.02756 0.608409 2.21577 0.808783L6.2076 5.20878C6.39476 5.41503 6.49994 5.69477 6.5 5.98648V5.98648Z"/>
    </symbol>
    <symbol id="income" width="21" height="21" viewBox="0 0 24 24">
        <path d="M13.05 16.25H11.17C9.84001 16.25 8.75 15.13 8.75 13.75C8.75 13.34 9.09 13 9.5 13C9.91 13 10.25 13.34 10.25 13.75C10.25 14.3 10.66 14.75 11.17 14.75H13.05C13.44 14.75 13.75 14.4 13.75 13.97C13.75 13.43 13.6 13.35 13.26 13.23L10.25 12.18C9.61 11.96 8.75 11.49 8.75 10.02C8.75 8.76999 9.74001 7.73999 10.95 7.73999H12.83C14.16 7.73999 15.25 8.85999 15.25 10.24C15.25 10.65 14.91 10.99 14.5 10.99C14.09 10.99 13.75 10.65 13.75 10.24C13.75 9.68999 13.34 9.23999 12.83 9.23999H10.95C10.56 9.23999 10.25 9.58999 10.25 10.02C10.25 10.56 10.4 10.64 10.74 10.76L13.75 11.81C14.39 12.03 15.25 12.5 15.25 13.97C15.25 15.23 14.26 16.25 13.05 16.25Z"/>
        <path d="M12 17.25C11.59 17.25 11.25 16.91 11.25 16.5V7.5C11.25 7.09 11.59 6.75 12 6.75C12.41 6.75 12.75 7.09 12.75 7.5V16.5C12.75 16.91 12.41 17.25 12 17.25Z"/>
        <path d="M12 22.75C6.07 22.75 1.25 17.93 1.25 12C1.25 6.07 6.07 1.25 12 1.25C12.41 1.25 12.75 1.59 12.75 2C12.75 2.41 12.41 2.75 12 2.75C6.9 2.75 2.75 6.9 2.75 12C2.75 17.1 6.9 21.25 12 21.25C17.1 21.25 21.25 17.1 21.25 12C21.25 11.59 21.59 11.25 22 11.25C22.41 11.25 22.75 11.59 22.75 12C22.75 17.93 17.93 22.75 12 22.75Z"/>
        <path d="M21 7.75H17C16.59 7.75 16.25 7.41 16.25 7V3C16.25 2.59 16.59 2.25 17 2.25C17.41 2.25 17.75 2.59 17.75 3V6.25H21C21.41 6.25 21.75 6.59 21.75 7C21.75 7.41 21.41 7.75 21 7.75Z"/>
        <path d="M16.9999 7.75C16.8099 7.75 16.6199 7.68 16.4699 7.53C16.1799 7.24 16.1799 6.76 16.4699 6.47L21.4699 1.47C21.7599 1.18 22.2399 1.18 22.5299 1.47C22.8199 1.76 22.8199 2.24 22.5299 2.53L17.5299 7.53C17.3799 7.68 17.1899 7.75 16.9999 7.75Z"/>
    </symbol>
    <!-- Spec -->
    <symbol id="spec" width="20" height="14" viewBox="0 0 20 14" >
        <path d="M18 0H2C1.46957 0 0.960859 0.210714 0.585786 0.585787C0.210714 0.96086 0 1.46957 0 2V12C0 12.5304 0.210714 13.0391 0.585786 13.4142C0.960859 13.7893 1.46957 14 2 14H18C18.5304 14 19.0391 13.7893 19.4142 13.4142C19.7893 13.0391 20 12.5304 20 12V2C20 1.46957 19.7893 0.96086 19.4142 0.585787C19.0391 0.210714 18.5304 0 18 0ZM18 8H11V6H18V8ZM2 2H18V4H2V2ZM9 6V8H2V6H9ZM2 10H9V12H2V10ZM11 12V10H18V12H11Z"/>
    </symbol>
    <symbol id='export-csv-outline' width="16" height="20" viewBox="0 0 16 20">
        <path d="M15.034 17C14.481 17 14.067 17.448 14.067 18L2.005 18.026C2.005 18.026 2 18.018 2 18C2 17.448 1.552 17 1 17C0.448 17 0 17.448 0 18C0 19.103 0.867 20 1.933 20H14.067C15.133 20 16 19.103 16 18C16 17.448 15.586 17 15.034 17Z"/>
        <path d="M14.067 0H5.829C5.027 0 4.273 0.312 3.707 0.879L0.879 3.707C0.312 4.273 0 5.027 0 5.829V7C0 7.552 0.448 8 1 8C1.552 8 2 7.552 2 7H5C6.103 7 7 6.103 7 5V2H14V6.639C14 7.191 14.448 7.639 15 7.639C15.552 7.639 16 7.191 16 6.639V2C16 0.897 15.133 0 14.067 0ZM5 5H2.414L5 2.414V5Z"/>
        <path d="M2.647 16H3.665C4.217 16 4.665 15.552 4.665 15C4.665 14.448 4.217 14 3.665 14H2.647C2.29 14 2 13.71 2 13.353V11.647C2 11.29 2.29 11 2.647 11H3.665C4.217 11 4.665 10.552 4.665 10C4.665 9.448 4.217 9 3.665 9H2.647C1.188 9 0 10.188 0 11.647V13.353C0 14.813 1.188 16 2.647 16Z"/>
        <path d="M13.432 15.772C13.435 15.772 13.439 15.772 13.443 15.772C13.876 15.772 14.259 15.494 14.394 15.082L15.951 10.31C16.122 9.785 15.836 9.221 15.31 9.049C14.784 8.878 14.221 9.166 14.049 9.69L13.479 11.437L12.957 9.71C12.797 9.182 12.241 8.883 11.71 9.043C11.182 9.203 10.882 9.761 11.043 10.29L12.486 15.062C12.612 15.48 12.995 15.768 13.432 15.772Z"/>
        <path d="M7.974 10.828H7.976L8.922 10.848C9.457 10.877 9.931 10.422 9.943 9.869C9.954 9.317 9.516 8.86 8.964 8.848L8.004 8.828C6.781 8.865 5.744 9.739 5.642 10.966C5.538 12.229 6.442 13.326 7.702 13.464L8.239 13.523C8.461 13.547 8.614 13.643 8.653 13.703C8.677 13.742 8.656 13.839 8.626 13.954C8.621 13.955 8.536 14 8.235 14H7.109C6.557 14 6.109 14.448 6.109 15C6.109 15.552 6.557 16 7.109 16H8.235C9.418 16 10.186 15.521 10.516 14.575C10.757 13.883 10.696 13.194 10.342 12.634C9.962 12.032 9.256 11.621 8.454 11.533L7.918 11.474C7.745 11.455 7.62 11.304 7.634 11.13C7.649 10.958 7.801 10.828 7.974 10.828Z"/>
    </symbol>
    <symbol id='list-outline' width="18" height="20" viewBox="0 0 12 14">
        <path d="M10.6667 0.7H8.48133C8.36524 0.487871 8.19806 0.311529 7.99656 0.188666C7.79507 0.0658023 7.56634 0.000737761 7.33333 0H4.66667C4.43366 0.000737761 4.20493 0.0658023 4.00344 0.188666C3.80194 0.311529 3.63476 0.487871 3.51867 0.7H1.33333C0.979711 0.7 0.640573 0.8475 0.390524 1.11005C0.140476 1.3726 0 1.7287 0 2.1V12.6C0 12.9713 0.140476 13.3274 0.390524 13.5899C0.640573 13.8525 0.979711 14 1.33333 14H10.6667C11.0203 14 11.3594 13.8525 11.6095 13.5899C11.8595 13.3274 12 12.9713 12 12.6V2.1C12 1.7287 11.8595 1.3726 11.6095 1.11005C11.3594 0.8475 11.0203 0.7 10.6667 0.7ZM7.33333 1.4V2.8H4.66667V1.4H7.33333ZM10.6667 12.6H1.33333V2.1H3.33333V2.8C3.15652 2.8 2.98695 2.87375 2.86193 3.00503C2.7369 3.1363 2.66667 3.31435 2.66667 3.5C2.66667 3.68565 2.7369 3.8637 2.86193 3.99497C2.98695 4.12625 3.15652 4.2 3.33333 4.2H8.66667C8.84348 4.2 9.01305 4.12625 9.13807 3.99497C9.2631 3.8637 9.33333 3.68565 9.33333 3.5C9.33333 3.31435 9.2631 3.1363 9.13807 3.00503C9.01305 2.87375 8.84348 2.8 8.66667 2.8V2.1H10.6667V12.6Z"/>
        <path d="M8.66667 6.3H5.33333C5.15652 6.3 4.98695 6.37375 4.86193 6.50503C4.7369 6.6363 4.66667 6.81435 4.66667 7C4.66667 7.18565 4.7369 7.3637 4.86193 7.49497C4.98695 7.62625 5.15652 7.7 5.33333 7.7H8.66667C8.84348 7.7 9.01305 7.62625 9.13807 7.49497C9.2631 7.3637 9.33333 7.18565 9.33333 7C9.33333 6.81435 9.2631 6.6363 9.13807 6.50503C9.01305 6.37375 8.84348 6.3 8.66667 6.3Z"/>
        <path d="M8.66667 9.1H5.33333C5.15652 9.1 4.98695 9.17375 4.86193 9.30503C4.7369 9.4363 4.66667 9.61435 4.66667 9.8C4.66667 9.98565 4.7369 10.1637 4.86193 10.295C4.98695 10.4263 5.15652 10.5 5.33333 10.5H8.66667C8.84348 10.5 9.01305 10.4263 9.13807 10.295C9.2631 10.1637 9.33333 9.98565 9.33333 9.8C9.33333 9.61435 9.2631 9.4363 9.13807 9.30503C9.01305 9.17375 8.84348 9.1 8.66667 9.1Z"/>
        <path d="M3.33333 7.7C3.70152 7.7 4 7.3866 4 7C4 6.6134 3.70152 6.3 3.33333 6.3C2.96514 6.3 2.66667 6.6134 2.66667 7C2.66667 7.3866 2.96514 7.7 3.33333 7.7Z"/>
        <path d="M3.33333 10.5C3.70152 10.5 4 10.1866 4 9.8C4 9.4134 3.70152 9.1 3.33333 9.1C2.96514 9.1 2.66667 9.4134 2.66667 9.8C2.66667 10.1866 2.96514 10.5 3.33333 10.5Z"/>
    </symbol>
    <symbol id="clock-outline" width="20" height="20" viewBox="0 0 20 20">
        <path d="M10 20C8.02219 20 6.08879 19.4135 4.4443 18.3147C2.79981 17.2159 1.51809 15.6541 0.761209 13.8268C0.00433284 11.9996 -0.193701 9.98891 0.192152 8.0491C0.578004 6.10929 1.53041 4.32746 2.92894 2.92894C4.32746 1.53041 6.10929 0.578004 8.0491 0.192152C9.98891 -0.193701 11.9996 0.00433284 13.8268 0.761209C15.6541 1.51809 17.2159 2.79981 18.3147 4.4443C19.4135 6.08879 20 8.02219 20 10C19.9971 12.6513 18.9426 15.1931 17.0679 17.0679C15.1931 18.9426 12.6513 19.9971 10 20ZM10 2C8.41775 2 6.87104 2.4692 5.55544 3.34825C4.23985 4.2273 3.21447 5.47673 2.60897 6.93854C2.00347 8.40035 1.84504 10.0089 2.15372 11.5607C2.4624 13.1126 3.22433 14.538 4.34315 15.6569C5.46197 16.7757 6.88743 17.5376 8.43928 17.8463C9.99113 18.155 11.5997 17.9965 13.0615 17.391C14.5233 16.7855 15.7727 15.7602 16.6518 14.4446C17.5308 13.129 18 11.5823 18 10C17.9976 7.879 17.154 5.84556 15.6542 4.34578C14.1545 2.84601 12.121 2.00239 10 2Z"/>
        <path d="M10 11C9.73479 11 9.48043 10.8946 9.2929 10.7071C9.10536 10.5196 9 10.2652 9 10V6C9 5.73479 9.10536 5.48043 9.2929 5.2929C9.48043 5.10536 9.73479 5 10 5C10.2652 5 10.5196 5.10536 10.7071 5.2929C10.8946 5.48043 11 5.73479 11 6V10C11 10.2652 10.8946 10.5196 10.7071 10.7071C10.5196 10.8946 10.2652 11 10 11Z"/>
        <path d="M13.275 14.275C13.0098 14.2749 12.7555 14.1696 12.568 13.982L9.2929 10.7071C9.11074 10.5185 9.01005 10.2658 9.01233 10.0036C9.01461 9.74141 9.11978 9.49059 9.30519 9.30519C9.49059 9.11978 9.74141 9.01461 10.0036 9.01233C10.2658 9.01005 10.5184 9.11085 10.707 9.293L13.982 12.568C14.1218 12.7079 14.217 12.886 14.2556 13.08C14.2942 13.2739 14.2744 13.475 14.1987 13.6577C14.123 13.8404 13.9949 13.9965 13.8305 14.1064C13.6661 14.2163 13.4728 14.275 13.275 14.275Z"/>
    </symbol>
    <symbol id='lock-outline' width="16" height="18" viewBox="0 0 16 18">
        <path d="M14 6.3H12.5V4.05C12.5 2.97587 12.0259 1.94574 11.182 1.18622C10.3381 0.426695 9.19347 0 8 0C6.80653 0 5.66193 0.426695 4.81802 1.18622C3.97411 1.94574 3.5 2.97587 3.5 4.05V6.3H2C1.46957 6.3 0.960859 6.48964 0.585786 6.82721C0.210714 7.16477 0 7.62261 0 8.1V16.2C0 16.6774 0.210714 17.1352 0.585786 17.4728C0.960859 17.8104 1.46957 18 2 18H14C14.5304 18 15.0391 17.8104 15.4142 17.4728C15.7893 17.1352 16 16.6774 16 16.2V8.1C16 7.62261 15.7893 7.16477 15.4142 6.82721C15.0391 6.48964 14.5304 6.3 14 6.3ZM5.5 4.05C5.5 3.45326 5.76339 2.88097 6.23223 2.45901C6.70107 2.03705 7.33696 1.8 8 1.8C8.66304 1.8 9.29893 2.03705 9.76777 2.45901C10.2366 2.88097 10.5 3.45326 10.5 4.05V6.3H5.5V4.05ZM14 16.2H2V8.1H14V16.2Z"/>
        <path d="M8 9.9C7.73478 9.9 7.48043 9.99482 7.29289 10.1636C7.10536 10.3324 7 10.5613 7 10.8V13.5C7 13.7387 7.10536 13.9676 7.29289 14.1364C7.48043 14.3052 7.73478 14.4 8 14.4C8.26522 14.4 8.51957 14.3052 8.70711 14.1364C8.89464 13.9676 9 13.7387 9 13.5V10.8C9 10.5613 8.89464 10.3324 8.70711 10.1636C8.51957 9.99482 8.26522 9.9 8 9.9Z"/>
    </symbol>
    <symbol id='unlock-outline' width="24" height="24" viewBox="0 0 24 24">
        <path d="M16.5734 3.01699C15.5444 3.14475 14.5993 3.64907 13.9204 4.43258C13.2416 5.2161 12.8772 6.22326 12.8976 7.25962V9.29993H4.80054C4.32301 9.29993 3.86503 9.48957 3.52737 9.82714C3.1897 10.1647 3 10.6225 3 11.0999V19.2C3 19.6774 3.1897 20.1352 3.52737 20.4728C3.86503 20.8104 4.32301 21 4.80054 21H15.6038C16.0813 21 16.5393 20.8104 16.877 20.4728C17.2146 20.1352 17.4043 19.6774 17.4043 19.2V11.0999C17.4043 10.6225 17.2146 10.1647 16.877 9.82714C16.5393 9.48957 16.0813 9.29993 15.6038 9.29993H14.6981V7.21192C14.6826 6.62986 14.8828 6.06261 15.2601 5.61908C15.6375 5.17555 16.1655 4.88703 16.7426 4.8089C17.0543 4.78024 17.3685 4.81688 17.6652 4.91648C17.9619 5.01608 18.2346 5.17645 18.4658 5.38734C18.697 5.59823 18.8817 5.85502 19.008 6.14129C19.1343 6.42756 19.1995 6.73703 19.1995 7.04992V10.1999C19.1995 10.4386 19.2943 10.6676 19.4631 10.8363C19.632 11.0051 19.861 11.0999 20.0997 11.0999C20.3385 11.0999 20.5675 11.0051 20.7363 10.8363C20.9052 10.6676 21 10.4386 21 10.1999V7.04992C20.9994 6.4866 20.8813 5.92959 20.6534 5.41441C20.4254 4.89924 20.0926 4.4372 19.6761 4.05776C19.2596 3.67832 18.7686 3.3898 18.2344 3.21061C17.7002 3.03141 17.1345 2.96547 16.5734 3.01699ZM15.6038 19.2H4.80054V11.0999H15.6038V19.2Z"/>
        <path d="M10.2022 13.0504C9.9634 13.0504 9.73441 13.1452 9.56558 13.314C9.39675 13.4828 9.3019 13.7117 9.3019 13.9504V16.6504C9.3019 16.8891 9.39675 17.1181 9.56558 17.2868C9.73441 17.4556 9.9634 17.5504 10.2022 17.5504C10.4409 17.5504 10.6699 17.4556 10.8388 17.2868C11.0076 17.1181 11.1024 16.8891 11.1024 16.6504V13.9504C11.1024 13.7117 11.0076 13.4828 10.8388 13.314C10.6699 13.1452 10.4409 13.0504 10.2022 13.0504Z" />
    </symbol>
    <symbol id="x-outline" width="10" height="10" viewBox="0 0 14 17">
        <path d="M8.41152 7L13.6952 1.71628C13.7906 1.62419 13.8666 1.51404 13.919 1.39225C13.9713 1.27046 13.9988 1.13947 14 1.00692C14.0011 0.874375 13.9759 0.742926 13.9257 0.620245C13.8755 0.497564 13.8013 0.386108 13.7076 0.29238C13.6139 0.198652 13.5024 0.124529 13.3798 0.0743358C13.2571 0.0241431 13.1256 -0.0011141 12.9931 3.76909e-05C12.8605 0.00118949 12.7295 0.0287274 12.6078 0.0810446C12.486 0.133362 12.3758 0.209411 12.2837 0.304753L7 5.58848L1.71628 0.304753C1.528 0.122915 1.27584 0.0222964 1.01411 0.0245708C0.752369 0.0268452 0.501997 0.13183 0.316913 0.316913C0.13183 0.501997 0.0268452 0.752369 0.0245708 1.01411C0.0222964 1.27584 0.122915 1.528 0.304753 1.71628L5.58848 7L0.304753 12.2837C0.209411 12.3758 0.133362 12.486 0.0810446 12.6078C0.0287274 12.7295 0.00118949 12.8605 3.76909e-05 12.9931C-0.0011141 13.1256 0.0241431 13.2571 0.0743358 13.3798C0.124529 13.5024 0.198652 13.6139 0.29238 13.7076C0.386108 13.8013 0.497564 13.8755 0.620245 13.9257C0.742926 13.9759 0.874375 14.0011 1.00692 14C1.13947 13.9988 1.27046 13.9713 1.39225 13.919C1.51404 13.8666 1.62419 13.7906 1.71628 13.6952L7 8.41152L12.2837 13.6952C12.472 13.8771 12.7242 13.9777 12.9859 13.9754C13.2476 13.9732 13.498 13.8682 13.6831 13.6831C13.8682 13.498 13.9732 13.2476 13.9754 12.9859C13.9777 12.7242 13.8771 12.472 13.6952 12.2837L8.41152 7Z"/>
    </symbol>
    <symbol id="x-outline-sm" width="4" height="4" viewBox="0 0 4 4" >
        <path d="M2.40329 2L3.91293 0.490364C3.94017 0.464054 3.9619 0.432582 3.97684 0.397785C3.99179 0.362988 3.99966 0.325562 3.99999 0.287692C4.00032 0.249821 3.9931 0.212265 3.97876 0.177213C3.96442 0.142161 3.94324 0.110317 3.91646 0.0835371C3.88968 0.0567576 3.85784 0.0355796 3.82279 0.0212388C3.78773 0.00689801 3.75018 -0.000318315 3.71231 1.07688e-05C3.67444 0.000339853 3.63701 0.00820784 3.60221 0.0231556C3.56742 0.0381034 3.53595 0.0598316 3.50964 0.0870724L2 1.59671L0.490364 0.0870724C0.436572 0.0351184 0.364527 0.0063704 0.289745 0.00702023C0.214963 0.00767007 0.143428 0.0376658 0.0905467 0.0905467C0.0376658 0.143428 0.00767007 0.214963 0.00702023 0.289745C0.0063704 0.364527 0.0351184 0.436572 0.0870724 0.490364L1.59671 2L0.0870724 3.50964C0.0598316 3.53595 0.0381034 3.56742 0.0231556 3.60221C0.00820784 3.63701 0.000339853 3.67444 1.07688e-05 3.71231C-0.000318315 3.75018 0.00689801 3.78773 0.0212388 3.82279C0.0355796 3.85784 0.0567576 3.88968 0.0835371 3.91646C0.110317 3.94324 0.142161 3.96442 0.177213 3.97876C0.212265 3.9931 0.249821 4.00032 0.287692 3.99999C0.325562 3.99966 0.362988 3.99179 0.397785 3.97684C0.432582 3.9619 0.464054 3.94017 0.490364 3.91293L2 2.40329L3.50964 3.91293C3.56343 3.96488 3.63547 3.99363 3.71025 3.99298C3.78504 3.99233 3.85657 3.96233 3.90945 3.90945C3.96233 3.85657 3.99233 3.78504 3.99298 3.71025C3.99363 3.63547 3.96488 3.56343 3.91293 3.50964L2.40329 2Z"/>
    </symbol>
    <symbol id="locations" width="18" height="24" viewBox="10 0 5 24">
        <path d="M12 2C9.87896 2.00218 7.84545 2.8158 6.34565 4.26234C4.84585 5.70888 4.00227 7.67019 4.00001 9.7159C3.99678 11.3663 4.54804 12.9732 5.57121 14.2961C5.59055 14.3285 5.61192 14.3598 5.63521 14.3897L11.1467 21.583C11.2458 21.7123 11.3751 21.8174 11.524 21.8898C11.673 21.9623 11.8375 22 12.0043 22C12.1711 22 12.3355 21.9623 12.4845 21.8898C12.6334 21.8174 12.7627 21.7123 12.8619 21.583L18.369 14.3897C18.3923 14.3601 18.4137 14.3292 18.433 14.2971C19.4547 12.9734 20.0044 11.3661 20 9.7159C19.9977 7.67019 19.1541 5.70888 17.6543 4.26234C16.1545 2.8158 14.121 2.00218 12 2ZM16.6517 13.1521C16.6224 13.1894 16.5956 13.2286 16.5717 13.2693L12 19.2363L7.42934 13.2693C7.40469 13.2284 7.37762 13.1889 7.34827 13.151C6.55918 12.1678 6.13175 10.9593 6.13334 9.7159C6.13334 8.21522 6.75143 6.776 7.85164 5.71486C8.95185 4.65372 10.4441 4.05757 12 4.05757C13.5559 4.05757 15.0481 4.65372 16.1483 5.71486C17.2486 6.776 17.8666 8.21522 17.8666 9.7159C17.8685 10.9596 17.441 12.1685 16.6517 13.1521Z"/>
        <path d="M12 5.72627C11.1561 5.72627 10.3312 5.96762 9.62957 6.41979C8.92792 6.87197 8.38105 7.51467 8.05812 8.26662C7.73518 9.01856 7.65069 9.84598 7.81532 10.6442C7.97995 11.4425 8.38631 12.1757 8.98301 12.7513C9.57972 13.3268 10.34 13.7187 11.1676 13.8775C11.9953 14.0363 12.8531 13.9548 13.6328 13.6433C14.4124 13.3319 15.0788 12.8044 15.5476 12.1277C16.0164 11.4509 16.2666 10.6553 16.2666 9.84141C16.2652 8.75043 15.8153 7.70451 15.0154 6.93307C14.2156 6.16162 13.1311 5.72763 12 5.72627ZM12 11.899C11.5781 11.899 11.1656 11.7783 10.8148 11.5522C10.464 11.3261 10.1905 11.0048 10.0291 10.6288C9.86759 10.2528 9.82534 9.83913 9.90766 9.44C9.98997 9.04087 10.1932 8.67425 10.4915 8.38649C10.7899 8.09873 11.17 7.90277 11.5838 7.82338C11.9976 7.74398 12.4266 7.78473 12.8164 7.94046C13.2062 8.0962 13.5394 8.35992 13.7738 8.69829C14.0082 9.03665 14.1333 9.43446 14.1333 9.84141C14.1333 10.3871 13.9086 10.9105 13.5085 11.2963C13.1084 11.6822 12.5658 11.899 12 11.899Z"/>
    </symbol>
    <!-- state -->
    <symbol id='empty-state' width="74" height="74" viewBox="0 0 64 64">
        <g clip-path="url(#clip0_42_37)">
        <path d="M16.4081 57.9027L1.98383 32.6249C1.70908 32.2082 1.70908 31.6527 1.98383 31.236L16.4081 6.02767C16.6828 5.61101 17.0949 5.33323 17.5758 5.33323H46.4242C46.905 5.33323 47.3858 5.61101 47.5919 6.02767L62.0162 31.3055C62.2909 31.7221 62.2909 32.2777 62.0162 32.6943L47.5919 57.9721C47.3172 58.3888 46.905 58.6666 46.4242 58.6666H17.5758C17.0949 58.5971 16.6141 58.3888 16.4081 57.9027Z" fill="#E8E8E8"/>
        <path d="M19.9111 53.1111L7.8909 32L19.9111 10.8888H44.0889L56.1091 32L44.0889 53.1111H19.9111Z" fill="black"/>
        <path d="M38.7313 27.3472C38.7313 28.1806 38.5939 28.9445 38.3192 29.6389C38.0444 30.3333 37.6323 31.0278 37.1515 31.5833C36.6707 32.1389 36.0525 32.625 35.3657 32.9722C34.6788 33.3195 33.9232 33.5972 33.1677 33.6667L33.0303 36.5833H29.8707L29.7333 30.5417H31.4505C31.8626 30.5417 32.3434 30.4722 32.6869 30.3333C33.099 30.1945 33.4424 29.9861 33.7172 29.7083C33.9919 29.4306 34.198 29.1528 34.404 28.7361C34.6101 28.3889 34.6788 27.9722 34.6788 27.5556C34.6788 26.6528 34.3353 25.8889 33.7172 25.2639C33.099 24.7083 32.3434 24.3611 31.3818 24.3611C30.5576 24.3611 29.802 24.5695 29.1838 24.9167C28.5657 25.2639 27.9475 25.75 27.5354 26.375L24.5818 24.2222C25.4061 23.1806 26.3677 22.3472 27.4667 21.6528C28.5657 21.0278 29.9394 20.6806 31.5192 20.6806C32.5495 20.6806 33.5111 20.8195 34.3354 21.1667C35.2283 21.5139 35.9838 22 36.602 22.5556C37.2202 23.1111 37.7697 23.8056 38.1131 24.6389C38.5252 25.5417 38.7313 26.4445 38.7313 27.3472ZM31.4505 38.5278C32.0687 38.5278 32.6182 38.7361 33.0303 39.1528C33.4424 39.5695 33.6485 40.125 33.6485 40.75C33.6485 41.375 33.4424 41.9306 33.0303 42.3472C32.6182 42.7639 32.0687 42.9722 31.4505 42.9722C30.8323 42.9722 30.2828 42.7639 29.8707 42.3472C29.4586 41.9306 29.1838 41.375 29.1838 40.75C29.1838 40.125 29.3899 39.5695 29.8707 39.1528C30.2828 38.7361 30.8323 38.5278 31.4505 38.5278Z" fill="white"/>
        </g>
        <defs>
        <clipPath id="clip0_42_37">
        <rect width="64" height="64" fill="white"/>
        </clipPath>
        </defs>
    </symbol>

    <symbol id="paper"  width="12" height="20" viewBox="0 0 12 20" >
        <path d="M6 20C4.40919 19.9984 2.88399 19.3658 1.75911 18.2409C0.63424 17.116 0.00158843 15.5908 0 14V6C0 5.73478 0.105357 5.48043 0.292893 5.29289C0.48043 5.10536 0.734784 5 1 5C1.26522 5 1.51957 5.10536 1.70711 5.29289C1.89464 5.48043 2 5.73478 2 6V14C2 15.0609 2.42143 16.0783 3.17157 16.8284C3.92172 17.5786 4.93913 18 6 18C7.06087 18 8.07828 17.5786 8.82843 16.8284C9.57857 16.0783 10 15.0609 10 14V4.5C10 3.83696 9.73661 3.20107 9.26777 2.73223C8.79893 2.26339 8.16304 2 7.5 2C6.83696 2 6.20107 2.26339 5.73223 2.73223C5.26339 3.20107 5 3.83696 5 4.5V13C5 13.2652 5.10536 13.5196 5.29289 13.7071C5.48043 13.8946 5.73478 14 6 14C6.26522 14 6.51957 13.8946 6.70711 13.7071C6.89464 13.5196 7 13.2652 7 13V6C7 5.73478 7.10536 5.48043 7.29289 5.29289C7.48043 5.10536 7.73478 5 8 5C8.26522 5 8.51957 5.10536 8.70711 5.29289C8.89464 5.48043 9 5.73478 9 6V13C9 13.7956 8.68393 14.5587 8.12132 15.1213C7.55871 15.6839 6.79565 16 6 16C5.20435 16 4.44129 15.6839 3.87868 15.1213C3.31607 14.5587 3 13.7956 3 13V4.5C3 3.30653 3.47411 2.16193 4.31802 1.31802C5.16193 0.474106 6.30653 0 7.5 0C8.69347 0 9.83807 0.474106 10.682 1.31802C11.5259 2.16193 12 3.30653 12 4.5V14C11.9984 15.5908 11.3658 17.116 10.2409 18.2409C9.11601 19.3658 7.59081 19.9984 6 20Z"/>
    </symbol>

    <symbol id='peoples' width="18" height="18" viewBox="0 0 20 20" >
        <path d="M14 2.10526C13.521 2.10912 13.0467 2.20435 12.6 2.38632C12.8375 3.06748 12.9698 3.78427 12.992 4.50948C13.2964 4.31645 13.6446 4.21319 14 4.21053C14.3412 4.20927 14.677 4.29993 14.9756 4.47387C15.2741 4.64781 15.5254 4.89925 15.7055 5.20428C15.8857 5.50931 15.9887 5.85778 16.0048 6.21655C16.0209 6.57532 15.9495 6.93245 15.7974 7.25398C15.6454 7.57551 15.4177 7.85074 15.136 8.0535C14.8544 8.25626 14.5282 8.3798 14.1884 8.41237C13.8486 8.44494 13.5065 8.38546 13.1947 8.23958C12.8829 8.0937 12.6117 7.86628 12.407 7.57895C12.1196 8.23844 11.7345 8.84567 11.266 9.3779C11.7412 9.84997 12.319 10.1923 12.9489 10.375C13.5788 10.5577 14.2417 10.5752 14.8795 10.426C15.5173 10.2767 16.1107 9.96524 16.6078 9.51882C17.1048 9.07239 17.4904 8.50459 17.7309 7.86505C17.9713 7.22552 18.0592 6.53373 17.9869 5.85016C17.9147 5.16659 17.6844 4.51206 17.3164 3.9438C16.9483 3.37553 16.4535 2.91084 15.8754 2.59034C15.2973 2.26984 14.6534 2.10329 14 2.10526Z" />
        <path d="M15 11.5789H13.736C14.1641 12.2215 14.4913 12.9323 14.705 13.6842H15C15.7956 13.6842 16.5587 14.0169 17.1213 14.6091C17.6839 15.2014 18 16.0046 18 16.8421V17.8947H15V18.9474C14.9968 19.3068 14.9345 19.6629 14.816 20H19C19.2652 20 19.5196 19.8891 19.7071 19.6917C19.8946 19.4943 20 19.2265 20 18.9474V16.8421C19.9984 15.4467 19.4711 14.109 18.5338 13.1223C17.5964 12.1357 16.3256 11.5806 15 11.5789Z" />
        <path d="M6.5 9.47369C5.60998 9.47369 4.73995 9.19588 3.99993 8.67538C3.25991 8.15489 2.68314 7.4151 2.34254 6.54955C2.00195 5.68401 1.91283 4.73159 2.08647 3.81273C2.2601 2.89387 2.68868 2.04985 3.31802 1.38739C3.94736 0.724932 4.74918 0.273791 5.62209 0.0910192C6.49501 -0.0917529 7.39981 0.00205238 8.22208 0.360573C9.04434 0.719093 9.74715 1.32623 10.2416 2.1052C10.7361 2.88416 11 3.79998 11 4.73684C10.9987 5.9927 10.5241 7.19673 9.68052 8.08476C8.83689 8.97279 7.69307 9.47229 6.5 9.47369ZM6.5 2.10526C6.00555 2.10526 5.5222 2.2596 5.11107 2.54877C4.69995 2.83793 4.37952 3.24892 4.1903 3.72978C4.00108 4.21064 3.95157 4.73976 4.04804 5.25024C4.1445 5.76072 4.3826 6.22962 4.73223 6.59765C5.08186 6.96568 5.52732 7.21632 6.01227 7.31786C6.49723 7.4194 6.99989 7.36728 7.45671 7.16811C7.91352 6.96893 8.30397 6.63163 8.57867 6.19887C8.85338 5.76611 9 5.25732 9 4.73684C9 4.03891 8.73661 3.36955 8.26777 2.87604C7.79893 2.38252 7.16304 2.10526 6.5 2.10526Z" />
        <path d="M12 20H1C0.734784 20 0.48043 19.8891 0.292893 19.6917C0.105357 19.4943 0 19.2265 0 18.9474V15.7895C0.00158786 14.3941 0.528882 13.0564 1.46622 12.0697C2.40356 11.083 3.67441 10.528 5 10.5263H8C9.32559 10.528 10.5964 11.083 11.5338 12.0697C12.4711 13.0564 12.9984 14.3941 13 15.7895V18.9474C13 19.2265 12.8946 19.4943 12.7071 19.6917C12.5196 19.8891 12.2652 20 12 20ZM2 17.8947H11V15.7895C11 14.9519 10.6839 14.1487 10.1213 13.5565C9.55871 12.9643 8.79565 12.6316 8 12.6316H5C4.20435 12.6316 3.44129 12.9643 2.87868 13.5565C2.31607 14.1487 2 14.9519 2 15.7895V17.8947Z"/>
    </symbol>
    <symbol id="applications" width="18" height="20" viewBox="0 0 18 20">
        <path d="M16 1H12.722C12.5479 0.696959 12.2971 0.445042 11.9948 0.269523C11.6926 0.0940032 11.3495 0.00105394 11 0H7C6.65049 0.00105394 6.3074 0.0940032 6.00516 0.269523C5.70291 0.445042 5.45214 0.696959 5.278 1H2C1.46957 1 0.960859 1.21071 0.585786 1.58579C0.210714 1.96086 0 2.46957 0 3V18C0 18.5304 0.210714 19.0391 0.585786 19.4142C0.960859 19.7893 1.46957 20 2 20H16C16.5304 20 17.0391 19.7893 17.4142 19.4142C17.7893 19.0391 18 18.5304 18 18V3C18 2.46957 17.7893 1.96086 17.4142 1.58579C17.0391 1.21071 16.5304 1 16 1ZM11 2V4H7V2H11ZM16 18H2V3H5V4C4.73478 4 4.48043 4.10536 4.29289 4.29289C4.10536 4.48043 4 4.73478 4 5C4 5.26522 4.10536 5.51957 4.29289 5.70711C4.48043 5.89464 4.73478 6 5 6H13C13.2652 6 13.5196 5.89464 13.7071 5.70711C13.8946 5.51957 14 5.26522 14 5C14 4.73478 13.8946 4.48043 13.7071 4.29289C13.5196 4.10536 13.2652 4 13 4V3H16V18Z" fill="#98A0AD"/>
        <path d="M13 9H8C7.73478 9 7.48043 9.10536 7.29289 9.29289C7.10536 9.48043 7 9.73478 7 10C7 10.2652 7.10536 10.5196 7.29289 10.7071C7.48043 10.8946 7.73478 11 8 11H13C13.2652 11 13.5196 10.8946 13.7071 10.7071C13.8946 10.5196 14 10.2652 14 10C14 9.73478 13.8946 9.48043 13.7071 9.29289C13.5196 9.10536 13.2652 9 13 9Z" fill="#98A0AD"/>
        <path d="M13 13H8C7.73478 13 7.48043 13.1054 7.29289 13.2929C7.10536 13.4804 7 13.7348 7 14C7 14.2652 7.10536 14.5196 7.29289 14.7071C7.48043 14.8946 7.73478 15 8 15H13C13.2652 15 13.5196 14.8946 13.7071 14.7071C13.8946 14.5196 14 14.2652 14 14C14 13.7348 13.8946 13.4804 13.7071 13.2929C13.5196 13.1054 13.2652 13 13 13Z" fill="#98A0AD"/>
        <path d="M5 11C5.55228 11 6 10.5523 6 10C6 9.44771 5.55228 9 5 9C4.44772 9 4 9.44771 4 10C4 10.5523 4.44772 11 5 11Z" fill="#98A0AD"/>
        <path d="M5 15C5.55228 15 6 14.5523 6 14C6 13.4477 5.55228 13 5 13C4.44772 13 4 13.4477 4 14C4 14.5523 4.44772 15 5 15Z" fill="#98A0AD"/>
    </symbol>
    <symbol id="people" width="14" height="20" viewBox="0 0 14 20">
        <path d="M7 9.47369C6.04152 9.47369 5.10457 9.19588 4.30762 8.67538C3.51068 8.15489 2.88953 7.4151 2.52274 6.54955C2.15594 5.68401 2.05997 4.73159 2.24696 3.81273C2.43395 2.89387 2.89551 2.04985 3.57325 1.38739C4.251 0.724932 5.1145 0.273791 6.05456 0.0910192C6.99462 -0.0917529 7.96902 0.00205238 8.85454 0.360573C9.74006 0.719093 10.4969 1.32623 11.0294 2.1052C11.5619 2.88416 11.8462 3.79998 11.8462 4.73684C11.8447 5.9927 11.3337 7.19673 10.4252 8.08476C9.51665 8.97279 8.28484 9.47229 7 9.47369ZM7 2.10526C6.46751 2.10526 5.94698 2.2596 5.50423 2.54877C5.06149 2.83793 4.71641 3.24892 4.51263 3.72978C4.30886 4.21064 4.25554 4.73976 4.35942 5.25024C4.46331 5.76072 4.71973 6.22962 5.09625 6.59765C5.47278 6.96568 5.9525 7.21632 6.47476 7.31786C6.99701 7.4194 7.53835 7.36728 8.0303 7.16811C8.52226 6.96893 8.94274 6.63163 9.23857 6.19887C9.53441 5.76611 9.69231 5.25732 9.69231 4.73684C9.69231 4.03891 9.40866 3.36955 8.90375 2.87604C8.39884 2.38252 7.71404 2.10526 7 2.10526Z" fill="#98A0AD"/>
        <path d="M12.9231 20H1.07692C0.791305 20 0.517386 19.8891 0.315424 19.6917C0.113461 19.4943 0 19.2265 0 18.9474V15.7895C0.00171 14.3941 0.569565 13.0564 1.57901 12.0697C2.58845 11.083 3.95705 10.528 5.38462 10.5263H8.61539C10.0429 10.528 11.4116 11.083 12.421 12.0697C13.4304 13.0564 13.9983 14.3941 14 15.7895V18.9474C14 19.2265 13.8865 19.4943 13.6846 19.6917C13.4826 19.8891 13.2087 20 12.9231 20ZM2.15385 17.8947H11.8462V15.7895C11.8462 14.9519 11.5058 14.1487 10.8999 13.5565C10.294 12.9643 9.47224 12.6316 8.61539 12.6316H5.38462C4.52776 12.6316 3.706 12.9643 3.10012 13.5565C2.49423 14.1487 2.15385 14.9519 2.15385 15.7895V17.8947Z" fill="#98A0AD"/>
    </symbol>
    <symbol id="info" width="16" height="16" viewBox="0 0 18 18">
        <path d="M9 18C7.21997 18 5.47991 17.4722 3.99987 16.4832C2.51983 15.4943 1.36628 14.0887 0.685088 12.4442C0.00389956 10.7996 -0.17433 8.99002 0.172936 7.24419C0.520203 5.49836 1.37737 3.89471 2.63604 2.63604C3.89471 1.37737 5.49836 0.520203 7.24419 0.172936C8.99002 -0.17433 10.7996 0.00389956 12.4442 0.685088C14.0887 1.36628 15.4943 2.51983 16.4832 3.99987C17.4722 5.47991 18 7.21997 18 9C17.9974 11.3861 17.0483 13.6738 15.3611 15.3611C13.6738 17.0483 11.3861 17.9974 9 18ZM9 1.8C7.57598 1.8 6.18393 2.22228 4.9999 3.01342C3.81586 3.80457 2.89302 4.92905 2.34807 6.24468C1.80312 7.56031 1.66054 9.00799 1.93835 10.4047C2.21616 11.8013 2.9019 13.0842 3.90883 14.0912C4.91577 15.0981 6.19869 15.7838 7.59535 16.0617C8.99202 16.3395 10.4397 16.1969 11.7553 15.6519C13.071 15.107 14.1954 14.1841 14.9866 13.0001C15.7777 11.8161 16.2 10.424 16.2 9C16.1979 7.0911 15.4386 5.261 14.0888 3.9112C12.739 2.5614 10.9089 1.80215 9 1.8Z"/>
        <path d="M9 13.5C8.76131 13.5 8.53239 13.4052 8.36361 13.2364C8.19482 13.0676 8.1 12.8387 8.1 12.6V9H7.2C6.96131 9 6.73239 8.90518 6.56361 8.7364C6.39482 8.56762 6.3 8.3387 6.3 8.1C6.3 7.86131 6.39482 7.63239 6.56361 7.46361C6.73239 7.29482 6.96131 7.2 7.2 7.2H9C9.2387 7.2 9.46762 7.29482 9.6364 7.46361C9.80518 7.63239 9.9 7.86131 9.9 8.1V12.6C9.9 12.8387 9.80518 13.0676 9.6364 13.2364C9.46762 13.4052 9.2387 13.5 9 13.5Z"/>
        <path d="M10.8 13.5H7.2C6.96131 13.5 6.73239 13.4052 6.56361 13.2364C6.39482 13.0676 6.3 12.8387 6.3 12.6C6.3 12.3613 6.39482 12.1324 6.56361 11.9636C6.73239 11.7948 6.96131 11.7 7.2 11.7H10.8C11.0387 11.7 11.2676 11.7948 11.4364 11.9636C11.6052 12.1324 11.7 12.3613 11.7 12.6C11.7 12.8387 11.6052 13.0676 11.4364 13.2364C11.2676 13.4052 11.0387 13.5 10.8 13.5Z" />
        <path d="M8.55 6.3C9.29559 6.3 9.9 5.69559 9.9 4.95C9.9 4.20442 9.29559 3.6 8.55 3.6C7.80442 3.6 7.2 4.20442 7.2 4.95C7.2 5.69559 7.80442 6.3 8.55 6.3Z"/>
    </symbol>
    <symbol id='back-arrow' width="18" height="14" viewBox="0 0 18 14">
        <path d="M16.7144 5.61608H4.39019L7.33817 2.40652C7.46096 2.2774 7.55891 2.12295 7.62629 1.95218C7.69366 1.78141 7.72913 1.59774 7.73061 1.41188C7.7321 1.22603 7.69957 1.04171 7.63492 0.869694C7.57028 0.697673 7.47482 0.541392 7.35411 0.409968C7.23339 0.278545 7.08985 0.174611 6.93185 0.104232C6.77385 0.0338528 6.60456 -0.00156217 6.43385 5.28493e-05C6.26314 0.00166787 6.09444 0.0402809 5.93759 0.113639C5.78073 0.186997 5.63887 0.293631 5.52027 0.427318L0.377706 6.0262C0.257979 6.15622 0.162988 6.31068 0.098175 6.48073C0.033362 6.65079 0 6.83309 0 7.0172C0 7.20131 0.033362 7.38361 0.098175 7.55367C0.162988 7.72372 0.257979 7.87818 0.377706 8.0082L5.52027 13.6071C5.76275 13.8621 6.0875 14.0031 6.4246 13.9999C6.76169 13.9968 7.08414 13.8496 7.32251 13.59C7.56088 13.3305 7.69609 12.9794 7.69902 12.6124C7.70195 12.2454 7.57236 11.8919 7.33817 11.6279L4.39019 8.41552H16.7144C17.0553 8.41552 17.3823 8.26805 17.6234 8.00555C17.8645 7.74305 18 7.38703 18 7.0158C18 6.64457 17.8645 6.28855 17.6234 6.02605C17.3823 5.76355 17.0553 5.61608 16.7144 5.61608Z" fill="#98A0AD"/>
    </symbol>

    <symbol id='wallet' width="19" height="19" viewBox="0 0 19 19">
        <path d="M4.11666 8.28084C3.96624 8.28084 3.80791 8.2175 3.69708 8.10667C3.53083 7.9325 3.47541 7.67917 3.57041 7.4575L5.04291 3.9425C5.07458 3.87125 5.09041 3.82375 5.11416 3.78417C6.28583 1.08459 7.78208 0.427504 10.4262 1.44084C10.5767 1.49625 10.6954 1.615 10.7587 1.76542C10.8221 1.91584 10.8221 2.08209 10.7587 2.2325L8.43916 7.61584C8.34416 7.8375 8.13041 7.97209 7.89291 7.97209H5.63666C5.18541 7.97209 4.75791 8.05917 4.34624 8.23334C4.27499 8.265 4.19583 8.28084 4.11666 8.28084ZM8.39958 2.17709C7.41791 2.17709 6.81624 2.81834 6.19083 4.275C6.18291 4.29875 6.16708 4.3225 6.15916 4.34625L5.12208 6.80834C5.29624 6.7925 5.46249 6.78459 5.63666 6.78459H7.49708L9.40499 2.35125C9.03291 2.2325 8.70041 2.17709 8.39958 2.17709Z"/>
        <path d="M14.4796 8.13042C14.4242 8.13042 14.3608 8.1225 14.3054 8.10667C14.0046 8.01959 13.6879 7.97209 13.3554 7.97209H7.8929C7.69499 7.97209 7.50499 7.86917 7.39415 7.70292C7.29124 7.53667 7.26749 7.32292 7.34665 7.14084L9.64249 1.81292C9.76124 1.52792 10.1096 1.33001 10.4025 1.43292C10.4975 1.46459 10.5846 1.50417 10.6796 1.54376L12.5479 2.32751C13.6404 2.77876 14.3687 3.25376 14.8437 3.82376C14.9387 3.93459 15.0179 4.05334 15.0971 4.18001C15.1842 4.31459 15.2633 4.47292 15.3187 4.63917C15.3425 4.69459 15.3821 4.79751 15.4058 4.90834C15.6275 5.66042 15.5167 6.57876 15.0417 7.76626C14.9387 7.98792 14.7171 8.13042 14.4796 8.13042ZM8.7954 6.78459H13.3633C13.6167 6.78459 13.8621 6.80834 14.1075 6.84792C14.3292 6.15917 14.3767 5.62876 14.25 5.20126C14.2342 5.13001 14.2183 5.09834 14.2104 5.06667C14.1629 4.94001 14.1312 4.86876 14.0917 4.80542C14.0362 4.71834 13.9967 4.64709 13.9333 4.57584C13.5929 4.16417 12.9912 3.78417 12.0887 3.41209L10.5292 2.76292L8.7954 6.78459Z"/>
        <path d="M12.5875 18.0104H6.4125C6.19083 18.0104 5.985 17.9946 5.77917 17.9708C3.00042 17.7887 1.41708 16.1975 1.22708 13.3871C1.20333 13.2129 1.1875 12.9992 1.1875 12.7854V11.2417C1.1875 9.46041 2.24833 7.85333 3.88708 7.14083C4.44917 6.90333 5.035 6.78458 5.64458 6.78458H13.3712C13.8225 6.78458 14.2579 6.84791 14.6617 6.97458C16.5221 7.53666 17.8283 9.29416 17.8283 11.2417V12.7854C17.8283 12.9596 17.8204 13.1258 17.8125 13.2842C17.6383 16.3796 15.8333 18.0104 12.5875 18.0104ZM5.63667 7.97208C5.18542 7.97208 4.75792 8.05916 4.34625 8.23333C3.14292 8.75583 2.36708 9.93541 2.36708 11.2417V12.7854C2.36708 12.9517 2.38292 13.1179 2.39875 13.2762C2.54917 15.5325 3.6575 16.6408 5.88208 16.7912C6.08 16.815 6.23833 16.8308 6.40458 16.8308H12.5796C15.1921 16.8308 16.4746 15.6829 16.6012 13.2287C16.6092 13.0862 16.6171 12.9437 16.6171 12.7854V11.2417C16.6171 9.80874 15.6592 8.52624 14.2975 8.10666C13.9967 8.01958 13.68 7.97208 13.3475 7.97208H5.63667V7.97208Z"/>
        <path d="M1.77335 11.8354C1.44876 11.8354 1.1796 11.5662 1.1796 11.2417V8.92208C1.1796 6.42833 2.94501 4.275 5.38335 3.8C5.5971 3.76041 5.81876 3.83958 5.96126 4.00583C6.09585 4.17208 6.13543 4.40958 6.04835 4.60749L4.66293 7.91666C4.5996 8.05916 4.48876 8.16999 4.35418 8.23333C3.15085 8.75583 2.37501 9.93541 2.37501 11.2417C2.3671 11.5662 2.10585 11.8354 1.77335 11.8354ZM4.43335 5.39916C3.42001 5.96916 2.68376 6.96666 2.45418 8.13041C2.80251 7.77416 3.20626 7.47333 3.66543 7.25166L4.43335 5.39916Z"/>
        <path d="M17.2267 11.8354C16.9021 11.8354 16.6329 11.5663 16.6329 11.2417C16.6329 9.80876 15.675 8.52626 14.3133 8.10667C14.155 8.05917 14.0204 7.94834 13.9492 7.79792C13.8779 7.64751 13.87 7.47334 13.9333 7.32292C14.3054 6.39667 14.4004 5.72376 14.25 5.20126C14.2342 5.13001 14.2183 5.09834 14.2104 5.06667C14.1075 4.83709 14.1629 4.56792 14.345 4.39376C14.5271 4.21959 14.8042 4.18001 15.0258 4.29876C16.7517 5.20126 17.8204 6.97459 17.8204 8.92209V11.2417C17.8204 11.5663 17.5512 11.8354 17.2267 11.8354ZM15.2396 7.19626C15.7383 7.42584 16.1817 7.75042 16.5537 8.13834C16.4033 7.36251 16.0312 6.65792 15.485 6.10376C15.4454 6.43626 15.3662 6.80042 15.2396 7.19626Z"/>
    </symbol>
    <symbol id='master' width="17" height="17" viewBox="0 0 17 17">
        <path d="M16.7774 13.895L9.75605 6.83112C10.4505 5.04575 10.0647 2.94987 8.5987 1.475C7.05555 -0.077502 4.74083 -0.388002 2.88906 0.465873L6.20682 3.80375L3.8921 6.1325L0.497181 2.79462C-0.428707 4.65762 -0.0429203 6.98637 1.50023 8.53887C2.96621 10.0137 5.04946 10.4019 6.82408 9.70325L13.8454 16.7671C14.154 17.0776 14.617 17.0776 14.9256 16.7671L16.7002 14.9817C17.086 14.6712 17.086 14.1279 16.7774 13.895Z" fill-opacity="0.87"/>
    </symbol>

    <!-- chewrons, arrow -->

    <symbol id="chevron-sort-outline-asc" width="11" height="15" viewBox="0 0 14 22" >
        <path d="M12.602 7.98365C12.2312 7.98357 11.8756 7.84333 11.6134 7.59377L7.00874 3.21192L2.4041 7.59377C2.27511 7.72086 2.12081 7.82223 1.95021 7.89197C1.77962 7.96171 1.59613 7.99841 1.41046 7.99995C1.2248 8.00149 1.04067 7.96782 0.868819 7.90091C0.696971 7.834 0.540847 7.7352 0.409556 7.61026C0.278264 7.48532 0.174435 7.33675 0.104127 7.17322C0.0338188 7.00969 -0.0015606 6.83447 5.27961e-05 6.65778C0.00166619 6.4811 0.0402404 6.30649 0.113525 6.14414C0.186809 5.9818 0.293335 5.83497 0.426888 5.71222L6.02013 0.389598C6.28236 0.140139 6.63796 0 7.00874 0C7.37952 0 7.73512 0.140139 7.99735 0.389598L13.5906 5.71222C13.7861 5.89831 13.9192 6.13539 13.9731 6.39347C14.0271 6.65156 13.9994 6.91906 13.8936 7.16217C13.7878 7.40528 13.6086 7.61308 13.3787 7.7593C13.1488 7.90552 12.8785 7.98359 12.602 7.98365Z" fill='#B0B0B0'/>
        <path d="M7.0172 22C6.64593 21.9999 6.28989 21.8597 6.0274 21.6101L0.427404 16.2877C0.293689 16.165 0.187034 16.0181 0.113662 15.8558C0.040289 15.6935 0.0016682 15.5188 5.28599e-05 15.3422C-0.00156248 15.1655 0.0338596 14.9903 0.104253 14.8268C0.174646 14.6632 0.2786 14.5147 0.41005 14.3897C0.5415 14.2648 0.697813 14.166 0.869868 14.0991C1.04192 14.0322 1.22627 13.9985 1.41217 14.0001C1.59806 14.0016 1.78176 14.0383 1.95257 14.108C2.12337 14.1778 2.27786 14.2791 2.407 14.4062L7.0172 18.7879L11.6274 14.4062C11.8914 14.1638 12.2451 14.0297 12.6122 14.0328C12.9792 14.0358 13.3304 14.1757 13.5899 14.4224C13.8495 14.6691 13.9968 15.0029 13.9999 15.3517C14.0031 15.7006 13.862 16.0367 13.607 16.2877L8.007 21.6101C7.74451 21.8597 7.38848 21.9999 7.0172 22V22Z" fill='#797979'/>
    </symbol>
    <symbol id="chevron-sort-outline-desc" width="11" height="15" viewBox="0 0 14 22" >
        <path d="M12.602 7.98365C12.2312 7.98357 11.8756 7.84333 11.6134 7.59377L7.00874 3.21192L2.4041 7.59377C2.27511 7.72086 2.12081 7.82223 1.95021 7.89197C1.77962 7.96171 1.59613 7.99841 1.41046 7.99995C1.2248 8.00149 1.04067 7.96782 0.868819 7.90091C0.696971 7.834 0.540847 7.7352 0.409556 7.61026C0.278264 7.48532 0.174435 7.33675 0.104127 7.17322C0.0338188 7.00969 -0.0015606 6.83447 5.27961e-05 6.65778C0.00166619 6.4811 0.0402404 6.30649 0.113525 6.14414C0.186809 5.9818 0.293335 5.83497 0.426888 5.71222L6.02013 0.389598C6.28236 0.140139 6.63796 0 7.00874 0C7.37952 0 7.73512 0.140139 7.99735 0.389598L13.5906 5.71222C13.7861 5.89831 13.9192 6.13539 13.9731 6.39347C14.0271 6.65156 13.9994 6.91906 13.8936 7.16217C13.7878 7.40528 13.6086 7.61308 13.3787 7.7593C13.1488 7.90552 12.8785 7.98359 12.602 7.98365Z" fill='#797979'/>
        <path d="M7.0172 22C6.64593 21.9999 6.28989 21.8597 6.0274 21.6101L0.427404 16.2877C0.293689 16.165 0.187034 16.0181 0.113662 15.8558C0.040289 15.6935 0.0016682 15.5188 5.28599e-05 15.3422C-0.00156248 15.1655 0.0338596 14.9903 0.104253 14.8268C0.174646 14.6632 0.2786 14.5147 0.41005 14.3897C0.5415 14.2648 0.697813 14.166 0.869868 14.0991C1.04192 14.0322 1.22627 13.9985 1.41217 14.0001C1.59806 14.0016 1.78176 14.0383 1.95257 14.108C2.12337 14.1778 2.27786 14.2791 2.407 14.4062L7.0172 18.7879L11.6274 14.4062C11.8914 14.1638 12.2451 14.0297 12.6122 14.0328C12.9792 14.0358 13.3304 14.1757 13.5899 14.4224C13.8495 14.6691 13.9968 15.0029 13.9999 15.3517C14.0031 15.7006 13.862 16.0367 13.607 16.2877L8.007 21.6101C7.74451 21.8597 7.38848 21.9999 7.0172 22V22Z" fill='#B0B0B0'/>
    </symbol>
    <symbol id="chevron-sort-outline-disable" width="11" height="15" viewBox="0 0 14 22" >
        <path d="M12.602 7.98365C12.2312 7.98357 11.8756 7.84333 11.6134 7.59377L7.00874 3.21192L2.4041 7.59377C2.27511 7.72086 2.12081 7.82223 1.95021 7.89197C1.77962 7.96171 1.59613 7.99841 1.41046 7.99995C1.2248 8.00149 1.04067 7.96782 0.868819 7.90091C0.696971 7.834 0.540847 7.7352 0.409556 7.61026C0.278264 7.48532 0.174435 7.33675 0.104127 7.17322C0.0338188 7.00969 -0.0015606 6.83447 5.27961e-05 6.65778C0.00166619 6.4811 0.0402404 6.30649 0.113525 6.14414C0.186809 5.9818 0.293335 5.83497 0.426888 5.71222L6.02013 0.389598C6.28236 0.140139 6.63796 0 7.00874 0C7.37952 0 7.73512 0.140139 7.99735 0.389598L13.5906 5.71222C13.7861 5.89831 13.9192 6.13539 13.9731 6.39347C14.0271 6.65156 13.9994 6.91906 13.8936 7.16217C13.7878 7.40528 13.6086 7.61308 13.3787 7.7593C13.1488 7.90552 12.8785 7.98359 12.602 7.98365Z" fill='#B0B0B0'/>
        <path d="M7.0172 22C6.64593 21.9999 6.28989 21.8597 6.0274 21.6101L0.427404 16.2877C0.293689 16.165 0.187034 16.0181 0.113662 15.8558C0.040289 15.6935 0.0016682 15.5188 5.28599e-05 15.3422C-0.00156248 15.1655 0.0338596 14.9903 0.104253 14.8268C0.174646 14.6632 0.2786 14.5147 0.41005 14.3897C0.5415 14.2648 0.697813 14.166 0.869868 14.0991C1.04192 14.0322 1.22627 13.9985 1.41217 14.0001C1.59806 14.0016 1.78176 14.0383 1.95257 14.108C2.12337 14.1778 2.27786 14.2791 2.407 14.4062L7.0172 18.7879L11.6274 14.4062C11.8914 14.1638 12.2451 14.0297 12.6122 14.0328C12.9792 14.0358 13.3304 14.1757 13.5899 14.4224C13.8495 14.6691 13.9968 15.0029 13.9999 15.3517C14.0031 15.7006 13.862 16.0367 13.607 16.2877L8.007 21.6101C7.74451 21.8597 7.38848 21.9999 7.0172 22V22Z" fill='#B0B0B0'/>
    </symbol>
    <symbol id="lock" width="16" height="18" viewBox="0 0 17 20" >
        <path d="M14 6.3H12.5V4.05C12.5 2.97587 12.0259 1.94574 11.182 1.18622C10.3381 0.426695 9.19347 0 8 0C6.80653 0 5.66193 0.426695 4.81802 1.18622C3.97411 1.94574 3.5 2.97587 3.5 4.05V6.3H2C1.46957 6.3 0.960859 6.48964 0.585786 6.82721C0.210714 7.16477 0 7.62261 0 8.1V16.2C0 16.6774 0.210714 17.1352 0.585786 17.4728C0.960859 17.8104 1.46957 18 2 18H14C14.5304 18 15.0391 17.8104 15.4142 17.4728C15.7893 17.1352 16 16.6774 16 16.2V8.1C16 7.62261 15.7893 7.16477 15.4142 6.82721C15.0391 6.48964 14.5304 6.3 14 6.3ZM5.5 4.05C5.5 3.45326 5.76339 2.88097 6.23223 2.45901C6.70107 2.03705 7.33696 1.8 8 1.8C8.66304 1.8 9.29893 2.03705 9.76777 2.45901C10.2366 2.88097 10.5 3.45326 10.5 4.05V6.3H5.5V4.05ZM14 16.2H2V8.1H14V16.2Z"/>
        <path d="M8 9.9C7.73478 9.9 7.48043 9.99482 7.29289 10.1636C7.10536 10.3324 7 10.5613 7 10.8V13.5C7 13.7387 7.10536 13.9676 7.29289 14.1364C7.48043 14.3052 7.73478 14.4 8 14.4C8.26522 14.4 8.51957 14.3052 8.70711 14.1364C8.89464 13.9676 9 13.7387 9 13.5V10.8C9 10.5613 8.89464 10.3324 8.70711 10.1636C8.51957 9.99482 8.26522 9.9 8 9.9Z"/>
    </symbol>
    <symbol id="unlock" width="18" height="18" viewBox="0 0 18 18" >
        <path d="M13.5734 0.0169919C12.5444 0.144748 11.5993 0.649066 10.9204 1.43258C10.2416 2.2161 9.8772 3.22326 9.89757 4.25962V6.29993H1.80054C1.32301 6.29993 0.865033 6.48957 0.527366 6.82714C0.189699 7.16471 0 7.62255 0 8.09994V16.2C0 16.6774 0.189699 17.1352 0.527366 17.4728C0.865033 17.8104 1.32301 18 1.80054 18H12.6038C13.0813 18 13.5393 17.8104 13.877 17.4728C14.2146 17.1352 14.4043 16.6774 14.4043 16.2V8.09994C14.4043 7.62255 14.2146 7.16471 13.877 6.82714C13.5393 6.48957 13.0813 6.29993 12.6038 6.29993H11.6981V4.21192C11.6826 3.62986 11.8828 3.06261 12.2601 2.61908C12.6375 2.17555 13.1655 1.88703 13.7426 1.8089C14.0543 1.78024 14.3685 1.81688 14.6652 1.91648C14.9619 2.01608 15.2346 2.17645 15.4658 2.38734C15.697 2.59823 15.8817 2.85502 16.008 3.14129C16.1343 3.42756 16.1995 3.73703 16.1995 4.04992V7.19993C16.1995 7.43863 16.2943 7.66755 16.4631 7.83633C16.632 8.00512 16.861 8.09994 17.0997 8.09994C17.3385 8.09994 17.5675 8.00512 17.7363 7.83633C17.9052 7.66755 18 7.43863 18 7.19993V4.04992C17.9994 3.4866 17.8813 2.92959 17.6534 2.41441C17.4254 1.89924 17.0926 1.4372 16.6761 1.05776C16.2596 0.678318 15.7686 0.389802 15.2344 0.210608C14.7002 0.0314137 14.1345 -0.0345264 13.5734 0.0169919ZM12.6038 16.2H1.80054V8.09994H12.6038V16.2Z"/>
        <path d="M7.20217 10.0504C6.9634 10.0504 6.73441 10.1452 6.56558 10.314C6.39675 10.4828 6.3019 10.7117 6.3019 10.9504V13.6504C6.3019 13.8891 6.39675 14.1181 6.56558 14.2868C6.73441 14.4556 6.9634 14.5504 7.20217 14.5504C7.44093 14.5504 7.66992 14.4556 7.83875 14.2868C8.00759 14.1181 8.10244 13.8891 8.10244 13.6504V10.9504C8.10244 10.7117 8.00759 10.4828 7.83875 10.314C7.66992 10.1452 7.44093 10.0504 7.20217 10.0504Z"/>
    </symbol>

    <symbol id='triangle-down' width="8" height="4" viewBox="0 0 8 4">
        <path d="M0.073724 0.42678L3.4702 3.82322C3.56783 3.92085 3.72612 3.92085 3.82375 3.82322L7.22014 0.42678C7.37764 0.26928 7.26614 0 7.04334 0H0.250504C0.0277738 0 -0.083766 0.26929 0.073724 0.42678Z"/>
    </symbol>
    <symbol id='triangle-right' width="4" height="8" viewBox="0 0 4 8">
        <path d="M0.42678 0.073724L3.82322 3.4702C3.92085 3.56783 3.92085 3.72612 3.82322 3.82375L0.42678 7.22014C0.26928 7.37764 0 7.26614 0 7.04344V0.250504C0 0.0277738 0.26929 -0.083766 0.42678 0.073724Z"/>
    </symbol>

    <symbol id='link' width="20" height="18" viewBox="0 0 20 18" >
        <path d="M9.74263 1.17157L2.31802 8.59619C0.56066 10.3535 0.56066 13.2028 2.31802 14.9601C4.07537 16.7175 6.92462 16.7175 8.68197 14.9601L17.5208 6.12134C18.6924 4.94974 18.6924 3.05024 17.5208 1.87869C16.3492 0.707104 14.4497 0.707104 13.2782 1.87869L4.43932 10.7175C3.85357 11.3033 3.85357 12.253 4.43932 12.8388C5.02512 13.4246 5.97488 13.4246 6.56068 12.8388L13.9853 5.41419" stroke="#333333" stroke-width="2" stroke-linecap="round" stroke-linejoin="round"/>
    </symbol>
    <symbol id="save" width="12" height="12" viewBox="2 0 10 12" >
        <path fill-rule="evenodd" clip-rule="evenodd" d="M9.5 12H2.5C1.67157 12 1 11.3284 1 10.5V1.5C1 0.671572 1.67157 0 2.5 0H7.55817C7.95277 0 8.33147 0.155488 8.61222 0.432772L10.5541 2.35063C10.8394 2.63245 11 3.0168 11 3.41786V10.5C11 11.3284 10.3284 12 9.5 12ZM2.5 1C2.22386 1 2 1.22386 2 1.5V10.5C2 10.7761 2.22386 11 2.5 11H3.5V8C3.5 7.44772 3.94772 7 4.5 7H7.5C8.05228 7 8.5 7.44772 8.5 8V11H9.5C9.77614 11 10 10.7761 10 10.5V3.41786C10 3.28417 9.94647 3.15605 9.85135 3.06211L8 1.23362V2.75C8 3.30228 7.55228 3.75 7 3.75H5C4.44772 3.75 4 3.30228 4 2.75V1H2.5ZM5 1V2.75H7V1H5ZM4.5 8V11H7.5V8H4.5Z"/>
    </symbol>
    <symbol id='items' width="20" height="20" viewBox="0 0 20 20">
        <g clip-path="url(#clip0_267_1234)">
        <path d="M10.0296 1.6371L7.08334 4.58337L10.0295 7.52958L12.9758 4.5833L10.0296 1.6371Z" stroke-width="2" stroke-linecap="round" stroke-linejoin="round"/>
        <path d="M15.4463 7.05372L12.5 10L15.4462 12.9462L18.3925 9.99993L15.4463 7.05372Z" stroke-width="2" stroke-linecap="round" stroke-linejoin="round"/>
        <path d="M4.61293 7.05372L1.66666 10L4.61286 12.9462L7.55914 9.99993L4.61293 7.05372Z"  stroke-width="2" stroke-linecap="round" stroke-linejoin="round"/>
        <path d="M10.0296 12.4703L7.08334 15.4166L10.0295 18.3628L12.9758 15.4166L10.0296 12.4703Z"  stroke-width="2" stroke-linecap="round" stroke-linejoin="round"/>
        </g>
        <defs>
        <clipPath id="clip0_267_1234">
        <rect width="20" height="20"/>
        </clipPath>
        </defs>
    </symbol>

</svg>
</svg>